<?xml version="1.0" encoding="UTF-8" standalone="no"?>
<!DOCTYPE svg PUBLIC "-//W3C//DTD SVG 1.1//EN"
 "http://www.w3.org/Graphics/SVG/1.1/DTD/svg11.dtd">
<!-- Generated by graphviz version 2.43.0 (0)
 -->
<!-- Title: /home/cendes/Documents/masters_thesis/ocloz/knob_graph_search/./ip_forward.dot Pages: 1 -->
<svg width="2115pt" height="620pt"
 viewBox="0.00 0.00 2114.79 620.00" xmlns="http://www.w3.org/2000/svg" xmlns:xlink="http://www.w3.org/1999/xlink">
<g id="graph0" class="graph" transform="scale(1 1) rotate(0) translate(4 616)">
<title>/home/cendes/Documents/masters_thesis/ocloz/knob_graph_search/./ip_forward.dot</title>
<polygon fill="white" stroke="transparent" points="-4,4 -4,-616 2110.79,-616 2110.79,4 -4,4"/>
<!-- devinet_init_net -->
<g id="node1" class="node">
<title>devinet_init_net</title>
<ellipse fill="none" stroke="black" cx="112" cy="-594" rx="67.69" ry="18"/>
<text text-anchor="middle" x="112" y="-590.3" font-family="Times,serif" font-size="14.00">devinet_init_net</text>
</g>
<!-- _ROOT_ -->
<g id="node2" class="node">
<title>_ROOT_</title>
<ellipse fill="none" stroke="black" cx="525" cy="-18" rx="43.59" ry="18"/>
<text text-anchor="middle" x="525" y="-14.3" font-family="Times,serif" font-size="14.00">_ROOT_</text>
</g>
<!-- devinet_init_net&#45;&gt;_ROOT_ -->
<g id="edge1" class="edge">
<title>devinet_init_net&#45;&gt;_ROOT_</title>
<path fill="none" stroke="black" d="M87.14,-577.05C54.15,-553.71 0,-506.89 0,-451 0,-451 0,-451 0,-161 0,-63.92 338.77,-31.18 472.05,-22.05"/>
<polygon fill="black" stroke="black" points="472.29,-25.54 482.04,-21.39 471.83,-18.56 472.29,-25.54"/>
</g>
<!-- register_net_sysctl -->
<g id="node19" class="node">
<title>register_net_sysctl</title>
<ellipse fill="none" stroke="black" cx="200" cy="-522" rx="76.89" ry="18"/>
<text text-anchor="middle" x="200" y="-518.3" font-family="Times,serif" font-size="14.00">register_net_sysctl</text>
</g>
<!-- devinet_init_net&#45;&gt;register_net_sysctl -->
<g id="edge35" class="edge">
<title>devinet_init_net&#45;&gt;register_net_sysctl</title>
<path fill="none" stroke="black" d="M132.41,-576.76C143.99,-567.55 158.66,-555.88 171.38,-545.77"/>
<polygon fill="black" stroke="black" points="173.75,-548.35 179.4,-539.39 169.39,-542.88 173.75,-548.35"/>
</g>
<!-- sysctl_check_table -->
<g id="node3" class="node">
<title>sysctl_check_table</title>
<ellipse fill="none" stroke="black" cx="105" cy="-234" rx="77.19" ry="18"/>
<text text-anchor="middle" x="105" y="-230.3" font-family="Times,serif" font-size="14.00">sysctl_check_table</text>
</g>
<!-- sysctl_check_table&#45;&gt;_ROOT_ -->
<g id="edge2" class="edge">
<title>sysctl_check_table&#45;&gt;_ROOT_</title>
<path fill="none" stroke="black" d="M110.67,-216.01C122.82,-182.41 154.78,-107.65 209,-72 251.37,-44.14 393.66,-29.08 472.06,-22.72"/>
<polygon fill="black" stroke="black" points="472.53,-26.19 482.22,-21.92 471.98,-19.22 472.53,-26.19"/>
</g>
<!-- __register_sysctl_table -->
<g id="node4" class="node">
<title>__register_sysctl_table</title>
<ellipse fill="none" stroke="black" cx="200" cy="-306" rx="91.78" ry="18"/>
<text text-anchor="middle" x="200" y="-302.3" font-family="Times,serif" font-size="14.00">__register_sysctl_table</text>
</g>
<!-- __register_sysctl_table&#45;&gt;sysctl_check_table -->
<g id="edge3" class="edge">
<title>__register_sysctl_table&#45;&gt;sysctl_check_table</title>
<path fill="none" stroke="black" d="M177.49,-288.41C164.95,-279.17 149.16,-267.54 135.52,-257.49"/>
<polygon fill="black" stroke="black" points="137.48,-254.58 127.35,-251.47 133.33,-260.22 137.48,-254.58"/>
</g>
<!-- insert_header -->
<g id="node24" class="node">
<title>insert_header</title>
<ellipse fill="none" stroke="black" cx="258" cy="-234" rx="57.69" ry="18"/>
<text text-anchor="middle" x="258" y="-230.3" font-family="Times,serif" font-size="14.00">insert_header</text>
</g>
<!-- __register_sysctl_table&#45;&gt;insert_header -->
<g id="edge37" class="edge">
<title>__register_sysctl_table&#45;&gt;insert_header</title>
<path fill="none" stroke="black" d="M214.04,-288.05C221.09,-279.54 229.77,-269.07 237.55,-259.68"/>
<polygon fill="black" stroke="black" points="240.4,-261.72 244.09,-251.79 235.01,-257.26 240.4,-261.72"/>
</g>
<!-- new_links -->
<g id="node5" class="node">
<title>new_links</title>
<ellipse fill="none" stroke="black" cx="265" cy="-90" rx="46.59" ry="18"/>
<text text-anchor="middle" x="265" y="-86.3" font-family="Times,serif" font-size="14.00">new_links</text>
</g>
<!-- new_links&#45;&gt;_ROOT_ -->
<g id="edge4" class="edge">
<title>new_links&#45;&gt;_ROOT_</title>
<path fill="none" stroke="black" d="M302.25,-78.97C349.02,-66.38 429.2,-44.79 479.53,-31.24"/>
<polygon fill="black" stroke="black" points="480.74,-34.54 489.49,-28.56 478.92,-27.78 480.74,-34.54"/>
</g>
<!-- insert_links -->
<g id="node6" class="node">
<title>insert_links</title>
<ellipse fill="none" stroke="black" cx="261" cy="-162" rx="51.99" ry="18"/>
<text text-anchor="middle" x="261" y="-158.3" font-family="Times,serif" font-size="14.00">insert_links</text>
</g>
<!-- insert_links&#45;&gt;new_links -->
<g id="edge5" class="edge">
<title>insert_links&#45;&gt;new_links</title>
<path fill="none" stroke="black" d="M261.99,-143.7C262.43,-135.98 262.96,-126.71 263.45,-118.11"/>
<polygon fill="black" stroke="black" points="266.95,-118.29 264.02,-108.1 259.96,-117.89 266.95,-118.29"/>
</g>
<!-- core_kernel_data -->
<g id="node7" class="node">
<title>core_kernel_data</title>
<ellipse fill="none" stroke="black" cx="443" cy="-378" rx="71.49" ry="18"/>
<text text-anchor="middle" x="443" y="-374.3" font-family="Times,serif" font-size="14.00">core_kernel_data</text>
</g>
<!-- core_kernel_data&#45;&gt;_ROOT_ -->
<g id="edge6" class="edge">
<title>core_kernel_data&#45;&gt;_ROOT_</title>
<path fill="none" stroke="black" d="M429.05,-360.26C421.32,-350.27 412.07,-337.02 406,-324 388.68,-286.87 382,-275.97 382,-235 382,-235 382,-235 382,-161 382,-120.03 379.37,-103.13 406,-72 424.15,-50.78 452.48,-37.7 476.95,-29.84"/>
<polygon fill="black" stroke="black" points="478.23,-33.11 486.8,-26.88 476.22,-26.41 478.23,-33.11"/>
</g>
<!-- ensure_safe_net_sysctl -->
<g id="node8" class="node">
<title>ensure_safe_net_sysctl</title>
<ellipse fill="none" stroke="black" cx="369" cy="-450" rx="91.78" ry="18"/>
<text text-anchor="middle" x="369" y="-446.3" font-family="Times,serif" font-size="14.00">ensure_safe_net_sysctl</text>
</g>
<!-- ensure_safe_net_sysctl&#45;&gt;_ROOT_ -->
<g id="edge29" class="edge">
<title>ensure_safe_net_sysctl&#45;&gt;_ROOT_</title>
<path fill="none" stroke="black" d="M363.94,-431.68C356.64,-405.11 344,-352.56 344,-307 344,-307 344,-307 344,-161 344,-117.99 350.86,-101.66 382,-72 407.32,-47.88 444.57,-34.54 474.71,-27.28"/>
<polygon fill="black" stroke="black" points="475.65,-30.66 484.63,-25.04 474.11,-23.83 475.65,-30.66"/>
</g>
<!-- ensure_safe_net_sysctl&#45;&gt;core_kernel_data -->
<g id="edge7" class="edge">
<title>ensure_safe_net_sysctl&#45;&gt;core_kernel_data</title>
<path fill="none" stroke="black" d="M386.91,-432.05C396.25,-423.22 407.83,-412.27 418.03,-402.62"/>
<polygon fill="black" stroke="black" points="420.65,-404.96 425.51,-395.55 415.84,-399.88 420.65,-404.96"/>
</g>
<!-- is_module_address -->
<g id="node18" class="node">
<title>is_module_address</title>
<ellipse fill="none" stroke="black" cx="611" cy="-378" rx="78.79" ry="18"/>
<text text-anchor="middle" x="611" y="-374.3" font-family="Times,serif" font-size="14.00">is_module_address</text>
</g>
<!-- ensure_safe_net_sysctl&#45;&gt;is_module_address -->
<g id="edge28" class="edge">
<title>ensure_safe_net_sysctl&#45;&gt;is_module_address</title>
<path fill="none" stroke="black" d="M418.26,-434.75C457.8,-423.31 513.32,-407.25 554.63,-395.31"/>
<polygon fill="black" stroke="black" points="555.64,-398.66 564.27,-392.52 553.69,-391.93 555.64,-398.66"/>
</g>
<!-- assert -->
<g id="node9" class="node">
<title>assert</title>
<ellipse fill="none" stroke="black" cx="555" cy="-90" rx="30.59" ry="18"/>
<text text-anchor="middle" x="555" y="-86.3" font-family="Times,serif" font-size="14.00">assert</text>
</g>
<!-- assert&#45;&gt;_ROOT_ -->
<g id="edge8" class="edge">
<title>assert&#45;&gt;_ROOT_</title>
<path fill="none" stroke="black" d="M547.89,-72.41C544.43,-64.34 540.18,-54.43 536.29,-45.35"/>
<polygon fill="black" stroke="black" points="539.42,-43.77 532.27,-35.96 532.99,-46.53 539.42,-43.77"/>
</g>
<!-- BUG_ON -->
<g id="node10" class="node">
<title>BUG_ON</title>
<ellipse fill="none" stroke="black" cx="555" cy="-162" rx="46.29" ry="18"/>
<text text-anchor="middle" x="555" y="-158.3" font-family="Times,serif" font-size="14.00">BUG_ON</text>
</g>
<!-- BUG_ON&#45;&gt;_ROOT_ -->
<g id="edge10" class="edge">
<title>BUG_ON&#45;&gt;_ROOT_</title>
<path fill="none" stroke="black" d="M538.52,-144.99C529.69,-135.24 519.69,-121.99 515,-108 508.23,-87.79 511.58,-63.7 516.15,-45.68"/>
<polygon fill="black" stroke="black" points="519.58,-46.43 518.92,-35.85 512.84,-44.53 519.58,-46.43"/>
</g>
<!-- BUG_ON&#45;&gt;assert -->
<g id="edge9" class="edge">
<title>BUG_ON&#45;&gt;assert</title>
<path fill="none" stroke="black" d="M555,-143.7C555,-135.98 555,-126.71 555,-118.11"/>
<polygon fill="black" stroke="black" points="558.5,-118.1 555,-108.1 551.5,-118.1 558.5,-118.1"/>
</g>
<!-- __module_address -->
<g id="node11" class="node">
<title>__module_address</title>
<ellipse fill="none" stroke="black" cx="611" cy="-306" rx="77.19" ry="18"/>
<text text-anchor="middle" x="611" y="-302.3" font-family="Times,serif" font-size="14.00">__module_address</text>
</g>
<!-- __module_address&#45;&gt;_ROOT_ -->
<g id="edge25" class="edge">
<title>__module_address&#45;&gt;_ROOT_</title>
<path fill="none" stroke="black" d="M588.72,-288.53C561.74,-267.05 517.73,-226.66 500,-180 482.79,-134.71 499.8,-77.95 512.95,-45.35"/>
<polygon fill="black" stroke="black" points="516.21,-46.62 516.86,-36.04 509.75,-43.9 516.21,-46.62"/>
</g>
<!-- __module_address&#45;&gt;BUG_ON -->
<g id="edge11" class="edge">
<title>__module_address&#45;&gt;BUG_ON</title>
<path fill="none" stroke="black" d="M604.25,-287.87C594.62,-263.46 576.86,-218.43 565.5,-189.64"/>
<polygon fill="black" stroke="black" points="568.7,-188.21 561.78,-180.19 562.19,-190.78 568.7,-188.21"/>
</g>
<!-- within_module -->
<g id="node13" class="node">
<title>within_module</title>
<ellipse fill="none" stroke="black" cx="723" cy="-162" rx="64.19" ry="18"/>
<text text-anchor="middle" x="723" y="-158.3" font-family="Times,serif" font-size="14.00">within_module</text>
</g>
<!-- __module_address&#45;&gt;within_module -->
<g id="edge17" class="edge">
<title>__module_address&#45;&gt;within_module</title>
<path fill="none" stroke="black" d="M624.29,-288.15C643.91,-263.28 680.74,-216.57 703.45,-187.79"/>
<polygon fill="black" stroke="black" points="706.28,-189.84 709.73,-179.82 700.79,-185.51 706.28,-189.84"/>
</g>
<!-- mod_find -->
<g id="node15" class="node">
<title>mod_find</title>
<ellipse fill="none" stroke="black" cx="881" cy="-234" rx="45.49" ry="18"/>
<text text-anchor="middle" x="881" y="-230.3" font-family="Times,serif" font-size="14.00">mod_find</text>
</g>
<!-- __module_address&#45;&gt;mod_find -->
<g id="edge24" class="edge">
<title>__module_address&#45;&gt;mod_find</title>
<path fill="none" stroke="black" d="M660.52,-292.16C709.98,-279.34 785.45,-259.77 834,-247.18"/>
<polygon fill="black" stroke="black" points="835.13,-250.51 843.94,-244.61 833.38,-243.73 835.13,-250.51"/>
</g>
<!-- within_module_init -->
<g id="node12" class="node">
<title>within_module_init</title>
<ellipse fill="none" stroke="black" cx="723" cy="-90" rx="80.69" ry="18"/>
<text text-anchor="middle" x="723" y="-86.3" font-family="Times,serif" font-size="14.00">within_module_init</text>
</g>
<!-- within_module_init&#45;&gt;_ROOT_ -->
<g id="edge12" class="edge">
<title>within_module_init&#45;&gt;_ROOT_</title>
<path fill="none" stroke="black" d="M681.97,-74.5C648.26,-62.58 600.7,-45.76 566.78,-33.77"/>
<polygon fill="black" stroke="black" points="567.76,-30.4 557.16,-30.37 565.43,-37 567.76,-30.4"/>
</g>
<!-- within_module&#45;&gt;_ROOT_ -->
<g id="edge16" class="edge">
<title>within_module&#45;&gt;_ROOT_</title>
<path fill="none" stroke="black" d="M693.57,-145.87C675.45,-136.04 652.12,-122.4 633,-108 614.41,-94.01 612.75,-87.04 595,-72 582.06,-61.03 567.14,-49.58 554.4,-40.14"/>
<polygon fill="black" stroke="black" points="556.12,-37.06 545.99,-33.96 551.98,-42.7 556.12,-37.06"/>
</g>
<!-- within_module&#45;&gt;within_module_init -->
<g id="edge13" class="edge">
<title>within_module&#45;&gt;within_module_init</title>
<path fill="none" stroke="black" d="M723,-143.7C723,-135.98 723,-126.71 723,-118.11"/>
<polygon fill="black" stroke="black" points="726.5,-118.1 723,-108.1 719.5,-118.1 726.5,-118.1"/>
</g>
<!-- within_module_core -->
<g id="node14" class="node">
<title>within_module_core</title>
<ellipse fill="none" stroke="black" cx="905" cy="-90" rx="83.69" ry="18"/>
<text text-anchor="middle" x="905" y="-86.3" font-family="Times,serif" font-size="14.00">within_module_core</text>
</g>
<!-- within_module&#45;&gt;within_module_core -->
<g id="edge15" class="edge">
<title>within_module&#45;&gt;within_module_core</title>
<path fill="none" stroke="black" d="M759.39,-147C787.19,-136.31 825.78,-121.47 856.25,-109.75"/>
<polygon fill="black" stroke="black" points="857.76,-112.92 865.84,-106.06 855.25,-106.39 857.76,-112.92"/>
</g>
<!-- within_module_core&#45;&gt;_ROOT_ -->
<g id="edge14" class="edge">
<title>within_module_core&#45;&gt;_ROOT_</title>
<path fill="none" stroke="black" d="M843.64,-77.65C833.41,-75.77 822.9,-73.83 813,-72 729.05,-56.52 631.32,-38.54 574.01,-28.01"/>
<polygon fill="black" stroke="black" points="574.6,-24.56 564.13,-26.19 573.33,-31.44 574.6,-24.56"/>
</g>
<!-- mod_find&#45;&gt;_ROOT_ -->
<g id="edge23" class="edge">
<title>mod_find&#45;&gt;_ROOT_</title>
<path fill="none" stroke="black" d="M905.06,-218.71C951.05,-189.69 1043.03,-122.35 998,-72 970.43,-41.17 696.69,-26.15 578.68,-21.06"/>
<polygon fill="black" stroke="black" points="578.57,-17.55 568.43,-20.63 578.27,-24.55 578.57,-17.55"/>
</g>
<!-- mod_find&#45;&gt;within_module -->
<g id="edge18" class="edge">
<title>mod_find&#45;&gt;within_module</title>
<path fill="none" stroke="black" d="M851.65,-220C827.3,-209.21 792.37,-193.73 765.05,-181.63"/>
<polygon fill="black" stroke="black" points="766.3,-178.35 755.74,-177.5 763.46,-184.75 766.3,-178.35"/>
</g>
<!-- latch_tree_find -->
<g id="node17" class="node">
<title>latch_tree_find</title>
<ellipse fill="none" stroke="black" cx="1109" cy="-162" rx="63.89" ry="18"/>
<text text-anchor="middle" x="1109" y="-158.3" font-family="Times,serif" font-size="14.00">latch_tree_find</text>
</g>
<!-- mod_find&#45;&gt;latch_tree_find -->
<g id="edge22" class="edge">
<title>mod_find&#45;&gt;latch_tree_find</title>
<path fill="none" stroke="black" d="M916.13,-222.22C954.02,-210.58 1014.72,-191.94 1057.9,-178.69"/>
<polygon fill="black" stroke="black" points="1059.12,-181.98 1067.65,-175.69 1057.07,-175.28 1059.12,-181.98"/>
</g>
<!-- __lt_find -->
<g id="node16" class="node">
<title>__lt_find</title>
<ellipse fill="none" stroke="black" cx="1126" cy="-90" rx="42.79" ry="18"/>
<text text-anchor="middle" x="1126" y="-86.3" font-family="Times,serif" font-size="14.00">__lt_find</text>
</g>
<!-- __lt_find&#45;&gt;_ROOT_ -->
<g id="edge19" class="edge">
<title>__lt_find&#45;&gt;_ROOT_</title>
<path fill="none" stroke="black" d="M1093.42,-78.11C1085.5,-75.79 1077.01,-73.57 1069,-72 891.55,-37.23 676.86,-24.86 578.69,-20.8"/>
<polygon fill="black" stroke="black" points="578.56,-17.3 568.43,-20.39 578.28,-24.29 578.56,-17.3"/>
</g>
<!-- latch_tree_find&#45;&gt;_ROOT_ -->
<g id="edge21" class="edge">
<title>latch_tree_find&#45;&gt;_ROOT_</title>
<path fill="none" stroke="black" d="M1099.67,-144.15C1087.09,-123.24 1062.56,-88.34 1031,-72 953.23,-31.73 692.31,-22.05 578.66,-19.73"/>
<polygon fill="black" stroke="black" points="578.52,-16.22 568.46,-19.53 578.39,-23.22 578.52,-16.22"/>
</g>
<!-- latch_tree_find&#45;&gt;__lt_find -->
<g id="edge20" class="edge">
<title>latch_tree_find&#45;&gt;__lt_find</title>
<path fill="none" stroke="black" d="M1113.2,-143.7C1115.1,-135.9 1117.38,-126.51 1119.48,-117.83"/>
<polygon fill="black" stroke="black" points="1122.89,-118.65 1121.85,-108.1 1116.08,-117 1122.89,-118.65"/>
</g>
<!-- is_module_address&#45;&gt;_ROOT_ -->
<g id="edge27" class="edge">
<title>is_module_address&#45;&gt;_ROOT_</title>
<path fill="none" stroke="black" d="M561.81,-363.8C505.22,-345.28 420,-305.66 420,-235 420,-235 420,-235 420,-161 420,-109.78 464.72,-64.93 495.79,-39.96"/>
<polygon fill="black" stroke="black" points="498.02,-42.66 503.75,-33.75 493.71,-37.14 498.02,-42.66"/>
</g>
<!-- is_module_address&#45;&gt;__module_address -->
<g id="edge26" class="edge">
<title>is_module_address&#45;&gt;__module_address</title>
<path fill="none" stroke="black" d="M611,-359.7C611,-351.98 611,-342.71 611,-334.11"/>
<polygon fill="black" stroke="black" points="614.5,-334.1 611,-324.1 607.5,-334.1 614.5,-334.1"/>
</g>
<!-- register_net_sysctl&#45;&gt;__register_sysctl_table -->
<g id="edge38" class="edge">
<title>register_net_sysctl&#45;&gt;__register_sysctl_table</title>
<path fill="none" stroke="black" d="M200,-503.85C200,-466.83 200,-379.18 200,-334.39"/>
<polygon fill="black" stroke="black" points="203.5,-334.23 200,-324.23 196.5,-334.23 203.5,-334.23"/>
</g>
<!-- register_net_sysctl&#45;&gt;ensure_safe_net_sysctl -->
<g id="edge30" class="edge">
<title>register_net_sysctl&#45;&gt;ensure_safe_net_sysctl</title>
<path fill="none" stroke="black" d="M236.25,-505.98C261.41,-495.56 295.16,-481.59 322.33,-470.33"/>
<polygon fill="black" stroke="black" points="323.74,-473.54 331.64,-466.48 321.06,-467.07 323.74,-473.54"/>
</g>
<!-- DEVINET_SYSCTL_ENTRY -->
<g id="node20" class="node">
<title>DEVINET_SYSCTL_ENTRY</title>
<ellipse fill="none" stroke="black" cx="1487" cy="-90" rx="119.68" ry="18"/>
<text text-anchor="middle" x="1487" y="-86.3" font-family="Times,serif" font-size="14.00">DEVINET_SYSCTL_ENTRY</text>
</g>
<!-- DEVINET_SYSCTL_ENTRY&#45;&gt;_ROOT_ -->
<g id="edge31" class="edge">
<title>DEVINET_SYSCTL_ENTRY&#45;&gt;_ROOT_</title>
<path fill="none" stroke="black" d="M1381.76,-81.34C1176.83,-66.43 730.92,-33.98 577.84,-22.84"/>
<polygon fill="black" stroke="black" points="577.98,-19.35 567.76,-22.11 577.48,-26.33 577.98,-19.35"/>
</g>
<!-- DEVINET_SYSCTL_RO_ENTRY -->
<g id="node21" class="node">
<title>DEVINET_SYSCTL_RO_ENTRY</title>
<ellipse fill="none" stroke="black" cx="1327" cy="-162" rx="135.68" ry="18"/>
<text text-anchor="middle" x="1327" y="-158.3" font-family="Times,serif" font-size="14.00">DEVINET_SYSCTL_RO_ENTRY</text>
</g>
<!-- DEVINET_SYSCTL_RO_ENTRY&#45;&gt;DEVINET_SYSCTL_ENTRY -->
<g id="edge32" class="edge">
<title>DEVINET_SYSCTL_RO_ENTRY&#45;&gt;DEVINET_SYSCTL_ENTRY</title>
<path fill="none" stroke="black" d="M1364.51,-144.59C1387.26,-134.63 1416.47,-121.86 1440.66,-111.27"/>
<polygon fill="black" stroke="black" points="1442.24,-114.4 1450,-107.19 1439.43,-107.99 1442.24,-114.4"/>
</g>
<!-- DEVINET_SYSCTL_COMPLEX_ENTRY -->
<g id="node22" class="node">
<title>DEVINET_SYSCTL_COMPLEX_ENTRY</title>
<ellipse fill="none" stroke="black" cx="1647" cy="-162" rx="166.27" ry="18"/>
<text text-anchor="middle" x="1647" y="-158.3" font-family="Times,serif" font-size="14.00">DEVINET_SYSCTL_COMPLEX_ENTRY</text>
</g>
<!-- DEVINET_SYSCTL_COMPLEX_ENTRY&#45;&gt;DEVINET_SYSCTL_ENTRY -->
<g id="edge33" class="edge">
<title>DEVINET_SYSCTL_COMPLEX_ENTRY&#45;&gt;DEVINET_SYSCTL_ENTRY</title>
<path fill="none" stroke="black" d="M1609.08,-144.41C1586.4,-134.49 1557.42,-121.81 1533.38,-111.29"/>
<polygon fill="black" stroke="black" points="1534.66,-108.03 1524.09,-107.23 1531.85,-114.44 1534.66,-108.03"/>
</g>
<!-- DEVINET_SYSCTL_RW_ENTRY -->
<g id="node23" class="node">
<title>DEVINET_SYSCTL_RW_ENTRY</title>
<ellipse fill="none" stroke="black" cx="1969" cy="-162" rx="137.58" ry="18"/>
<text text-anchor="middle" x="1969" y="-158.3" font-family="Times,serif" font-size="14.00">DEVINET_SYSCTL_RW_ENTRY</text>
</g>
<!-- DEVINET_SYSCTL_RW_ENTRY&#45;&gt;DEVINET_SYSCTL_ENTRY -->
<g id="edge34" class="edge">
<title>DEVINET_SYSCTL_RW_ENTRY&#45;&gt;DEVINET_SYSCTL_ENTRY</title>
<path fill="none" stroke="black" d="M1880.59,-148.16C1795.37,-135.78 1666.9,-117.13 1580.12,-104.52"/>
<polygon fill="black" stroke="black" points="1580.41,-101.03 1570.01,-103.06 1579.41,-107.96 1580.41,-101.03"/>
</g>
<!-- insert_header&#45;&gt;insert_links -->
<g id="edge36" class="edge">
<title>insert_header&#45;&gt;insert_links</title>
<path fill="none" stroke="black" d="M258.74,-215.7C259.07,-207.98 259.47,-198.71 259.84,-190.11"/>
<polygon fill="black" stroke="black" points="263.34,-190.25 260.27,-180.1 256.34,-189.95 263.34,-190.25"/>
</g>
<!-- DEVINET_SYSCTL_FLUSHING_ENTRY -->
<g id="node25" class="node">
<title>DEVINET_SYSCTL_FLUSHING_ENTRY</title>
<ellipse fill="none" stroke="black" cx="1647" cy="-234" rx="167.07" ry="18"/>
<text text-anchor="middle" x="1647" y="-230.3" font-family="Times,serif" font-size="14.00">DEVINET_SYSCTL_FLUSHING_ENTRY</text>
</g>
<!-- DEVINET_SYSCTL_FLUSHING_ENTRY&#45;&gt;DEVINET_SYSCTL_COMPLEX_ENTRY -->
<g id="edge39" class="edge">
<title>DEVINET_SYSCTL_FLUSHING_ENTRY&#45;&gt;DEVINET_SYSCTL_COMPLEX_ENTRY</title>
<path fill="none" stroke="black" d="M1647,-215.7C1647,-207.98 1647,-198.71 1647,-190.11"/>
<polygon fill="black" stroke="black" points="1650.5,-190.1 1647,-180.1 1643.5,-190.1 1650.5,-190.1"/>
</g>
</g>
</svg>
