<?xml version="1.0" encoding="UTF-8" standalone="no"?>
<!DOCTYPE svg PUBLIC "-//W3C//DTD SVG 1.1//EN"
 "http://www.w3.org/Graphics/SVG/1.1/DTD/svg11.dtd">
<!-- Generated by graphviz version 2.43.0 (0)
 -->
<!-- Title: /home/cendes/Documents/masters_thesis/ocloz/knob_graphs/ip_forward.dot Pages: 1 -->
<svg width="1210pt" height="548pt"
 viewBox="0.00 0.00 1210.43 548.00" xmlns="http://www.w3.org/2000/svg" xmlns:xlink="http://www.w3.org/1999/xlink">
<g id="graph0" class="graph" transform="scale(1 1) rotate(0) translate(4 544)">
<title>/home/cendes/Documents/masters_thesis/ocloz/knob_graphs/ip_forward.dot</title>
<polygon fill="white" stroke="transparent" points="-4,4 -4,-544 1206.43,-544 1206.43,4 -4,4"/>
<!-- __register_sysctl_table -->
<g id="node1" class="node">
<title>__register_sysctl_table</title>
<ellipse fill="none" stroke="black" cx="91.64" cy="-378" rx="91.78" ry="18"/>
<text text-anchor="middle" x="91.64" y="-374.3" font-family="Times,serif" font-size="14.00">__register_sysctl_table</text>
</g>
<!-- sysctl_check_table -->
<g id="node2" class="node">
<title>sysctl_check_table</title>
<ellipse fill="none" stroke="black" cx="91.64" cy="-306" rx="77.19" ry="18"/>
<text text-anchor="middle" x="91.64" y="-302.3" font-family="Times,serif" font-size="14.00">sysctl_check_table</text>
</g>
<!-- __register_sysctl_table&#45;&gt;sysctl_check_table -->
<g id="edge1" class="edge">
<title>__register_sysctl_table&#45;&gt;sysctl_check_table</title>
<path fill="none" stroke="black" d="M91.64,-359.7C91.64,-351.98 91.64,-342.71 91.64,-334.11"/>
<polygon fill="black" stroke="black" points="95.14,-334.1 91.64,-324.1 88.14,-334.1 95.14,-334.1"/>
</g>
<!-- __module_address -->
<g id="node3" class="node">
<title>__module_address</title>
<ellipse fill="none" stroke="black" cx="292.64" cy="-234" rx="77.19" ry="18"/>
<text text-anchor="middle" x="292.64" y="-230.3" font-family="Times,serif" font-size="14.00">__module_address</text>
</g>
<!-- BUG_ON -->
<g id="node4" class="node">
<title>BUG_ON</title>
<ellipse fill="none" stroke="black" cx="218.64" cy="-162" rx="46.29" ry="18"/>
<text text-anchor="middle" x="218.64" y="-158.3" font-family="Times,serif" font-size="14.00">BUG_ON</text>
</g>
<!-- __module_address&#45;&gt;BUG_ON -->
<g id="edge2" class="edge">
<title>__module_address&#45;&gt;BUG_ON</title>
<path fill="none" stroke="black" d="M275.1,-216.41C265.48,-207.3 253.39,-195.87 242.87,-185.92"/>
<polygon fill="black" stroke="black" points="245.21,-183.32 235.54,-178.99 240.4,-188.4 245.21,-183.32"/>
</g>
<!-- within_module -->
<g id="node5" class="node">
<title>within_module</title>
<ellipse fill="none" stroke="black" cx="292.64" cy="-90" rx="64.19" ry="18"/>
<text text-anchor="middle" x="292.64" y="-86.3" font-family="Times,serif" font-size="14.00">within_module</text>
</g>
<!-- __module_address&#45;&gt;within_module -->
<g id="edge14" class="edge">
<title>__module_address&#45;&gt;within_module</title>
<path fill="none" stroke="black" d="M292.64,-215.87C292.64,-191.67 292.64,-147.21 292.64,-118.39"/>
<polygon fill="black" stroke="black" points="296.14,-118.19 292.64,-108.19 289.14,-118.19 296.14,-118.19"/>
</g>
<!-- mod_find -->
<g id="node17" class="node">
<title>mod_find</title>
<ellipse fill="none" stroke="black" cx="365.64" cy="-162" rx="45.49" ry="18"/>
<text text-anchor="middle" x="365.64" y="-158.3" font-family="Times,serif" font-size="14.00">mod_find</text>
</g>
<!-- __module_address&#45;&gt;mod_find -->
<g id="edge13" class="edge">
<title>__module_address&#45;&gt;mod_find</title>
<path fill="none" stroke="black" d="M309.94,-216.41C319.44,-207.3 331.37,-195.87 341.74,-185.92"/>
<polygon fill="black" stroke="black" points="344.17,-188.44 348.97,-178.99 339.33,-183.38 344.17,-188.44"/>
</g>
<!-- within_module_init -->
<g id="node6" class="node">
<title>within_module_init</title>
<ellipse fill="none" stroke="black" cx="111.64" cy="-18" rx="80.69" ry="18"/>
<text text-anchor="middle" x="111.64" y="-14.3" font-family="Times,serif" font-size="14.00">within_module_init</text>
</g>
<!-- within_module&#45;&gt;within_module_init -->
<g id="edge3" class="edge">
<title>within_module&#45;&gt;within_module_init</title>
<path fill="none" stroke="black" d="M256.45,-75C228.71,-64.27 190.16,-49.37 159.82,-37.63"/>
<polygon fill="black" stroke="black" points="160.86,-34.28 150.27,-33.94 158.34,-40.81 160.86,-34.28"/>
</g>
<!-- within_module_core -->
<g id="node7" class="node">
<title>within_module_core</title>
<ellipse fill="none" stroke="black" cx="293.64" cy="-18" rx="83.69" ry="18"/>
<text text-anchor="middle" x="293.64" y="-14.3" font-family="Times,serif" font-size="14.00">within_module_core</text>
</g>
<!-- within_module&#45;&gt;within_module_core -->
<g id="edge4" class="edge">
<title>within_module&#45;&gt;within_module_core</title>
<path fill="none" stroke="black" d="M292.89,-71.7C293,-63.98 293.13,-54.71 293.25,-46.11"/>
<polygon fill="black" stroke="black" points="296.75,-46.15 293.4,-36.1 289.75,-46.05 296.75,-46.15"/>
</g>
<!-- latch_tree_find -->
<g id="node8" class="node">
<title>latch_tree_find</title>
<ellipse fill="none" stroke="black" cx="438.64" cy="-90" rx="63.89" ry="18"/>
<text text-anchor="middle" x="438.64" y="-86.3" font-family="Times,serif" font-size="14.00">latch_tree_find</text>
</g>
<!-- __lt_find -->
<g id="node9" class="node">
<title>__lt_find</title>
<ellipse fill="none" stroke="black" cx="438.64" cy="-18" rx="42.79" ry="18"/>
<text text-anchor="middle" x="438.64" y="-14.3" font-family="Times,serif" font-size="14.00">__lt_find</text>
</g>
<!-- latch_tree_find&#45;&gt;__lt_find -->
<g id="edge5" class="edge">
<title>latch_tree_find&#45;&gt;__lt_find</title>
<path fill="none" stroke="black" d="M438.64,-71.7C438.64,-63.98 438.64,-54.71 438.64,-46.11"/>
<polygon fill="black" stroke="black" points="442.14,-46.1 438.64,-36.1 435.14,-46.1 442.14,-46.1"/>
</g>
<!-- is_module_address -->
<g id="node10" class="node">
<title>is_module_address</title>
<ellipse fill="none" stroke="black" cx="292.64" cy="-306" rx="78.79" ry="18"/>
<text text-anchor="middle" x="292.64" y="-302.3" font-family="Times,serif" font-size="14.00">is_module_address</text>
</g>
<!-- is_module_address&#45;&gt;__module_address -->
<g id="edge6" class="edge">
<title>is_module_address&#45;&gt;__module_address</title>
<path fill="none" stroke="black" d="M292.64,-287.7C292.64,-279.98 292.64,-270.71 292.64,-262.11"/>
<polygon fill="black" stroke="black" points="296.14,-262.1 292.64,-252.1 289.14,-262.1 296.14,-262.1"/>
</g>
<!-- ensure_safe_net_sysctl -->
<g id="node11" class="node">
<title>ensure_safe_net_sysctl</title>
<ellipse fill="none" stroke="black" cx="292.64" cy="-378" rx="91.78" ry="18"/>
<text text-anchor="middle" x="292.64" y="-374.3" font-family="Times,serif" font-size="14.00">ensure_safe_net_sysctl</text>
</g>
<!-- ensure_safe_net_sysctl&#45;&gt;is_module_address -->
<g id="edge7" class="edge">
<title>ensure_safe_net_sysctl&#45;&gt;is_module_address</title>
<path fill="none" stroke="black" d="M292.64,-359.7C292.64,-351.98 292.64,-342.71 292.64,-334.11"/>
<polygon fill="black" stroke="black" points="296.14,-334.1 292.64,-324.1 289.14,-334.1 296.14,-334.1"/>
</g>
<!-- register_net_sysctl -->
<g id="node12" class="node">
<title>register_net_sysctl</title>
<ellipse fill="none" stroke="black" cx="191.64" cy="-450" rx="76.89" ry="18"/>
<text text-anchor="middle" x="191.64" y="-446.3" font-family="Times,serif" font-size="14.00">register_net_sysctl</text>
</g>
<!-- register_net_sysctl&#45;&gt;__register_sysctl_table -->
<g id="edge17" class="edge">
<title>register_net_sysctl&#45;&gt;__register_sysctl_table</title>
<path fill="none" stroke="black" d="M168.45,-432.76C155.14,-423.45 138.23,-411.61 123.66,-401.41"/>
<polygon fill="black" stroke="black" points="125.6,-398.5 115.4,-395.63 121.59,-404.24 125.6,-398.5"/>
</g>
<!-- register_net_sysctl&#45;&gt;ensure_safe_net_sysctl -->
<g id="edge8" class="edge">
<title>register_net_sysctl&#45;&gt;ensure_safe_net_sysctl</title>
<path fill="none" stroke="black" d="M215.07,-432.76C228.51,-423.45 245.59,-411.61 260.3,-401.41"/>
<polygon fill="black" stroke="black" points="262.42,-404.21 268.64,-395.63 258.43,-398.45 262.42,-404.21"/>
</g>
<!-- DEVINET_SYSCTL_RO_ENTRY -->
<g id="node13" class="node">
<title>DEVINET_SYSCTL_RO_ENTRY</title>
<ellipse fill="none" stroke="black" cx="422.64" cy="-450" rx="135.68" ry="18"/>
<text text-anchor="middle" x="422.64" y="-446.3" font-family="Times,serif" font-size="14.00">DEVINET_SYSCTL_RO_ENTRY</text>
</g>
<!-- DEVINET_SYSCTL_ENTRY -->
<g id="node14" class="node">
<title>DEVINET_SYSCTL_ENTRY</title>
<ellipse fill="none" stroke="black" cx="742.64" cy="-378" rx="119.68" ry="18"/>
<text text-anchor="middle" x="742.64" y="-374.3" font-family="Times,serif" font-size="14.00">DEVINET_SYSCTL_ENTRY</text>
</g>
<!-- DEVINET_SYSCTL_RO_ENTRY&#45;&gt;DEVINET_SYSCTL_ENTRY -->
<g id="edge9" class="edge">
<title>DEVINET_SYSCTL_RO_ENTRY&#45;&gt;DEVINET_SYSCTL_ENTRY</title>
<path fill="none" stroke="black" d="M489.72,-434.33C541.83,-422.93 614.05,-407.13 667.99,-395.33"/>
<polygon fill="black" stroke="black" points="668.81,-398.73 677.83,-393.18 667.32,-391.89 668.81,-398.73"/>
</g>
<!-- DEVINET_SYSCTL_COMPLEX_ENTRY -->
<g id="node15" class="node">
<title>DEVINET_SYSCTL_COMPLEX_ENTRY</title>
<ellipse fill="none" stroke="black" cx="742.64" cy="-450" rx="166.27" ry="18"/>
<text text-anchor="middle" x="742.64" y="-446.3" font-family="Times,serif" font-size="14.00">DEVINET_SYSCTL_COMPLEX_ENTRY</text>
</g>
<!-- DEVINET_SYSCTL_COMPLEX_ENTRY&#45;&gt;DEVINET_SYSCTL_ENTRY -->
<g id="edge10" class="edge">
<title>DEVINET_SYSCTL_COMPLEX_ENTRY&#45;&gt;DEVINET_SYSCTL_ENTRY</title>
<path fill="none" stroke="black" d="M742.64,-431.7C742.64,-423.98 742.64,-414.71 742.64,-406.11"/>
<polygon fill="black" stroke="black" points="746.14,-406.1 742.64,-396.1 739.14,-406.1 746.14,-406.1"/>
</g>
<!-- DEVINET_SYSCTL_RW_ENTRY -->
<g id="node16" class="node">
<title>DEVINET_SYSCTL_RW_ENTRY</title>
<ellipse fill="none" stroke="black" cx="1064.64" cy="-450" rx="137.58" ry="18"/>
<text text-anchor="middle" x="1064.64" y="-446.3" font-family="Times,serif" font-size="14.00">DEVINET_SYSCTL_RW_ENTRY</text>
</g>
<!-- DEVINET_SYSCTL_RW_ENTRY&#45;&gt;DEVINET_SYSCTL_ENTRY -->
<g id="edge11" class="edge">
<title>DEVINET_SYSCTL_RW_ENTRY&#45;&gt;DEVINET_SYSCTL_ENTRY</title>
<path fill="none" stroke="black" d="M996.75,-434.24C944.29,-422.84 871.74,-407.06 817.58,-395.29"/>
<polygon fill="black" stroke="black" points="818.21,-391.85 807.7,-393.14 816.72,-398.69 818.21,-391.85"/>
</g>
<!-- mod_find&#45;&gt;within_module -->
<g id="edge15" class="edge">
<title>mod_find&#45;&gt;within_module</title>
<path fill="none" stroke="black" d="M349.08,-145.12C339.67,-136.09 327.71,-124.62 317.22,-114.57"/>
<polygon fill="black" stroke="black" points="319.54,-111.95 309.9,-107.55 314.7,-117 319.54,-111.95"/>
</g>
<!-- mod_find&#45;&gt;latch_tree_find -->
<g id="edge12" class="edge">
<title>mod_find&#45;&gt;latch_tree_find</title>
<path fill="none" stroke="black" d="M382.21,-145.12C391.62,-136.09 403.58,-124.62 414.06,-114.57"/>
<polygon fill="black" stroke="black" points="416.59,-117 421.38,-107.55 411.74,-111.95 416.59,-117"/>
</g>
<!-- devinet_init_net -->
<g id="node18" class="node">
<title>devinet_init_net</title>
<ellipse fill="none" stroke="black" cx="191.64" cy="-522" rx="67.69" ry="18"/>
<text text-anchor="middle" x="191.64" y="-518.3" font-family="Times,serif" font-size="14.00">devinet_init_net</text>
</g>
<!-- devinet_init_net&#45;&gt;register_net_sysctl -->
<g id="edge16" class="edge">
<title>devinet_init_net&#45;&gt;register_net_sysctl</title>
<path fill="none" stroke="black" d="M191.64,-503.7C191.64,-495.98 191.64,-486.71 191.64,-478.11"/>
<polygon fill="black" stroke="black" points="195.14,-478.1 191.64,-468.1 188.14,-478.1 195.14,-478.1"/>
</g>
<!-- DEVINET_SYSCTL_FLUSHING_ENTRY -->
<g id="node19" class="node">
<title>DEVINET_SYSCTL_FLUSHING_ENTRY</title>
<ellipse fill="none" stroke="black" cx="742.64" cy="-522" rx="167.07" ry="18"/>
<text text-anchor="middle" x="742.64" y="-518.3" font-family="Times,serif" font-size="14.00">DEVINET_SYSCTL_FLUSHING_ENTRY</text>
</g>
<!-- DEVINET_SYSCTL_FLUSHING_ENTRY&#45;&gt;DEVINET_SYSCTL_COMPLEX_ENTRY -->
<g id="edge18" class="edge">
<title>DEVINET_SYSCTL_FLUSHING_ENTRY&#45;&gt;DEVINET_SYSCTL_COMPLEX_ENTRY</title>
<path fill="none" stroke="black" d="M742.64,-503.7C742.64,-495.98 742.64,-486.71 742.64,-478.11"/>
<polygon fill="black" stroke="black" points="746.14,-478.1 742.64,-468.1 739.14,-478.1 746.14,-478.1"/>
</g>
</g>
</svg>
