<?xml version="1.0" encoding="UTF-8" standalone="no"?>
<!DOCTYPE svg PUBLIC "-//W3C//DTD SVG 1.1//EN"
 "http://www.w3.org/Graphics/SVG/1.1/DTD/svg11.dtd">
<!-- Generated by graphviz version 2.43.0 (0)
 -->
<!-- Title: /home/cendes/Documents/masters_thesis/ocloz/knob_graph_search/./ip_forward.dot Pages: 1 -->
<svg width="1215pt" height="548pt"
 viewBox="0.00 0.00 1215.43 548.00" xmlns="http://www.w3.org/2000/svg" xmlns:xlink="http://www.w3.org/1999/xlink">
<g id="graph0" class="graph" transform="scale(1 1) rotate(0) translate(4 544)">
<title>/home/cendes/Documents/masters_thesis/ocloz/knob_graph_search/./ip_forward.dot</title>
<polygon fill="white" stroke="transparent" points="-4,4 -4,-544 1211.43,-544 1211.43,4 -4,4"/>
<!-- DEVINET_SYSCTL_RO_ENTRY -->
<g id="node1" class="node">
<title>DEVINET_SYSCTL_RO_ENTRY</title>
<ellipse fill="none" stroke="black" cx="135.84" cy="-450" rx="135.68" ry="18"/>
<text text-anchor="middle" x="135.84" y="-446.3" font-family="Times,serif" font-size="14.00">DEVINET_SYSCTL_RO_ENTRY</text>
</g>
<!-- DEVINET_SYSCTL_ENTRY -->
<g id="node2" class="node">
<title>DEVINET_SYSCTL_ENTRY</title>
<ellipse fill="none" stroke="black" cx="455.84" cy="-378" rx="119.68" ry="18"/>
<text text-anchor="middle" x="455.84" y="-374.3" font-family="Times,serif" font-size="14.00">DEVINET_SYSCTL_ENTRY</text>
</g>
<!-- DEVINET_SYSCTL_RO_ENTRY&#45;&gt;DEVINET_SYSCTL_ENTRY -->
<g id="edge1" class="edge">
<title>DEVINET_SYSCTL_RO_ENTRY&#45;&gt;DEVINET_SYSCTL_ENTRY</title>
<path fill="none" stroke="black" d="M202.92,-434.33C255.02,-422.93 327.25,-407.13 381.18,-395.33"/>
<polygon fill="black" stroke="black" points="382.01,-398.73 391.03,-393.18 380.51,-391.89 382.01,-398.73"/>
</g>
<!-- DEVINET_SYSCTL_COMPLEX_ENTRY -->
<g id="node3" class="node">
<title>DEVINET_SYSCTL_COMPLEX_ENTRY</title>
<ellipse fill="none" stroke="black" cx="455.84" cy="-450" rx="166.27" ry="18"/>
<text text-anchor="middle" x="455.84" y="-446.3" font-family="Times,serif" font-size="14.00">DEVINET_SYSCTL_COMPLEX_ENTRY</text>
</g>
<!-- DEVINET_SYSCTL_COMPLEX_ENTRY&#45;&gt;DEVINET_SYSCTL_ENTRY -->
<g id="edge2" class="edge">
<title>DEVINET_SYSCTL_COMPLEX_ENTRY&#45;&gt;DEVINET_SYSCTL_ENTRY</title>
<path fill="none" stroke="black" d="M455.84,-431.7C455.84,-423.98 455.84,-414.71 455.84,-406.11"/>
<polygon fill="black" stroke="black" points="459.34,-406.1 455.84,-396.1 452.34,-406.1 459.34,-406.1"/>
</g>
<!-- DEVINET_SYSCTL_RW_ENTRY -->
<g id="node4" class="node">
<title>DEVINET_SYSCTL_RW_ENTRY</title>
<ellipse fill="none" stroke="black" cx="777.84" cy="-450" rx="137.58" ry="18"/>
<text text-anchor="middle" x="777.84" y="-446.3" font-family="Times,serif" font-size="14.00">DEVINET_SYSCTL_RW_ENTRY</text>
</g>
<!-- DEVINET_SYSCTL_RW_ENTRY&#45;&gt;DEVINET_SYSCTL_ENTRY -->
<g id="edge3" class="edge">
<title>DEVINET_SYSCTL_RW_ENTRY&#45;&gt;DEVINET_SYSCTL_ENTRY</title>
<path fill="none" stroke="black" d="M709.94,-434.24C657.49,-422.84 584.93,-407.06 530.78,-395.29"/>
<polygon fill="black" stroke="black" points="531.41,-391.85 520.89,-393.14 529.92,-398.69 531.41,-391.85"/>
</g>
<!-- register_net_sysctl -->
<g id="node5" class="node">
<title>register_net_sysctl</title>
<ellipse fill="none" stroke="black" cx="1009.84" cy="-450" rx="76.89" ry="18"/>
<text text-anchor="middle" x="1009.84" y="-446.3" font-family="Times,serif" font-size="14.00">register_net_sysctl</text>
</g>
<!-- ensure_safe_net_sysctl -->
<g id="node6" class="node">
<title>ensure_safe_net_sysctl</title>
<ellipse fill="none" stroke="black" cx="908.84" cy="-378" rx="91.78" ry="18"/>
<text text-anchor="middle" x="908.84" y="-374.3" font-family="Times,serif" font-size="14.00">ensure_safe_net_sysctl</text>
</g>
<!-- register_net_sysctl&#45;&gt;ensure_safe_net_sysctl -->
<g id="edge4" class="edge">
<title>register_net_sysctl&#45;&gt;ensure_safe_net_sysctl</title>
<path fill="none" stroke="black" d="M986.41,-432.76C972.97,-423.45 955.89,-411.61 941.18,-401.41"/>
<polygon fill="black" stroke="black" points="943.05,-398.45 932.84,-395.63 939.06,-404.21 943.05,-398.45"/>
</g>
<!-- __register_sysctl_table -->
<g id="node16" class="node">
<title>__register_sysctl_table</title>
<ellipse fill="none" stroke="black" cx="1109.84" cy="-378" rx="91.78" ry="18"/>
<text text-anchor="middle" x="1109.84" y="-374.3" font-family="Times,serif" font-size="14.00">__register_sysctl_table</text>
</g>
<!-- register_net_sysctl&#45;&gt;__register_sysctl_table -->
<g id="edge16" class="edge">
<title>register_net_sysctl&#45;&gt;__register_sysctl_table</title>
<path fill="none" stroke="black" d="M1033.03,-432.76C1046.34,-423.45 1063.25,-411.61 1077.82,-401.41"/>
<polygon fill="black" stroke="black" points="1079.89,-404.24 1086.08,-395.63 1075.88,-398.5 1079.89,-404.24"/>
</g>
<!-- is_module_address -->
<g id="node7" class="node">
<title>is_module_address</title>
<ellipse fill="none" stroke="black" cx="908.84" cy="-306" rx="78.79" ry="18"/>
<text text-anchor="middle" x="908.84" y="-302.3" font-family="Times,serif" font-size="14.00">is_module_address</text>
</g>
<!-- ensure_safe_net_sysctl&#45;&gt;is_module_address -->
<g id="edge5" class="edge">
<title>ensure_safe_net_sysctl&#45;&gt;is_module_address</title>
<path fill="none" stroke="black" d="M908.84,-359.7C908.84,-351.98 908.84,-342.71 908.84,-334.11"/>
<polygon fill="black" stroke="black" points="912.34,-334.1 908.84,-324.1 905.34,-334.1 912.34,-334.1"/>
</g>
<!-- __module_address -->
<g id="node8" class="node">
<title>__module_address</title>
<ellipse fill="none" stroke="black" cx="908.84" cy="-234" rx="77.19" ry="18"/>
<text text-anchor="middle" x="908.84" y="-230.3" font-family="Times,serif" font-size="14.00">__module_address</text>
</g>
<!-- is_module_address&#45;&gt;__module_address -->
<g id="edge6" class="edge">
<title>is_module_address&#45;&gt;__module_address</title>
<path fill="none" stroke="black" d="M908.84,-287.7C908.84,-279.98 908.84,-270.71 908.84,-262.11"/>
<polygon fill="black" stroke="black" points="912.34,-262.1 908.84,-252.1 905.34,-262.1 912.34,-262.1"/>
</g>
<!-- mod_find -->
<g id="node11" class="node">
<title>mod_find</title>
<ellipse fill="none" stroke="black" cx="872.84" cy="-162" rx="45.49" ry="18"/>
<text text-anchor="middle" x="872.84" y="-158.3" font-family="Times,serif" font-size="14.00">mod_find</text>
</g>
<!-- __module_address&#45;&gt;mod_find -->
<g id="edge9" class="edge">
<title>__module_address&#45;&gt;mod_find</title>
<path fill="none" stroke="black" d="M900.12,-216.05C895.92,-207.89 890.79,-197.91 886.12,-188.82"/>
<polygon fill="black" stroke="black" points="889.16,-187.08 881.47,-179.79 882.93,-190.28 889.16,-187.08"/>
</g>
<!-- within_module -->
<g id="node12" class="node">
<title>within_module</title>
<ellipse fill="none" stroke="black" cx="945.84" cy="-90" rx="64.19" ry="18"/>
<text text-anchor="middle" x="945.84" y="-86.3" font-family="Times,serif" font-size="14.00">within_module</text>
</g>
<!-- __module_address&#45;&gt;within_module -->
<g id="edge11" class="edge">
<title>__module_address&#45;&gt;within_module</title>
<path fill="none" stroke="black" d="M915.19,-215.97C918.89,-205.66 923.48,-192.18 926.84,-180 932.47,-159.57 937.42,-136.11 940.85,-118.4"/>
<polygon fill="black" stroke="black" points="944.36,-118.68 942.78,-108.21 937.48,-117.38 944.36,-118.68"/>
</g>
<!-- latch_tree_find -->
<g id="node9" class="node">
<title>latch_tree_find</title>
<ellipse fill="none" stroke="black" cx="799.84" cy="-90" rx="63.89" ry="18"/>
<text text-anchor="middle" x="799.84" y="-86.3" font-family="Times,serif" font-size="14.00">latch_tree_find</text>
</g>
<!-- __lt_find -->
<g id="node10" class="node">
<title>__lt_find</title>
<ellipse fill="none" stroke="black" cx="799.84" cy="-18" rx="42.79" ry="18"/>
<text text-anchor="middle" x="799.84" y="-14.3" font-family="Times,serif" font-size="14.00">__lt_find</text>
</g>
<!-- latch_tree_find&#45;&gt;__lt_find -->
<g id="edge7" class="edge">
<title>latch_tree_find&#45;&gt;__lt_find</title>
<path fill="none" stroke="black" d="M799.84,-71.7C799.84,-63.98 799.84,-54.71 799.84,-46.11"/>
<polygon fill="black" stroke="black" points="803.34,-46.1 799.84,-36.1 796.34,-46.1 803.34,-46.1"/>
</g>
<!-- mod_find&#45;&gt;latch_tree_find -->
<g id="edge8" class="edge">
<title>mod_find&#45;&gt;latch_tree_find</title>
<path fill="none" stroke="black" d="M856.27,-145.12C846.86,-136.09 834.9,-124.62 824.42,-114.57"/>
<polygon fill="black" stroke="black" points="826.74,-111.95 817.1,-107.55 821.89,-117 826.74,-111.95"/>
</g>
<!-- mod_find&#45;&gt;within_module -->
<g id="edge12" class="edge">
<title>mod_find&#45;&gt;within_module</title>
<path fill="none" stroke="black" d="M889.4,-145.12C898.81,-136.09 910.77,-124.62 921.26,-114.57"/>
<polygon fill="black" stroke="black" points="923.78,-117 928.58,-107.55 918.94,-111.95 923.78,-117"/>
</g>
<!-- within_module_core -->
<g id="node13" class="node">
<title>within_module_core</title>
<ellipse fill="none" stroke="black" cx="944.84" cy="-18" rx="83.69" ry="18"/>
<text text-anchor="middle" x="944.84" y="-14.3" font-family="Times,serif" font-size="14.00">within_module_core</text>
</g>
<!-- within_module&#45;&gt;within_module_core -->
<g id="edge10" class="edge">
<title>within_module&#45;&gt;within_module_core</title>
<path fill="none" stroke="black" d="M945.59,-71.7C945.48,-63.98 945.35,-54.71 945.23,-46.11"/>
<polygon fill="black" stroke="black" points="948.72,-46.05 945.08,-36.1 941.73,-46.15 948.72,-46.05"/>
</g>
<!-- within_module_init -->
<g id="node14" class="node">
<title>within_module_init</title>
<ellipse fill="none" stroke="black" cx="1126.84" cy="-18" rx="80.69" ry="18"/>
<text text-anchor="middle" x="1126.84" y="-14.3" font-family="Times,serif" font-size="14.00">within_module_init</text>
</g>
<!-- within_module&#45;&gt;within_module_init -->
<g id="edge13" class="edge">
<title>within_module&#45;&gt;within_module_init</title>
<path fill="none" stroke="black" d="M982.03,-75C1009.77,-64.27 1048.32,-49.37 1078.66,-37.63"/>
<polygon fill="black" stroke="black" points="1080.14,-40.81 1088.2,-33.94 1077.62,-34.28 1080.14,-40.81"/>
</g>
<!-- devinet_init_net -->
<g id="node15" class="node">
<title>devinet_init_net</title>
<ellipse fill="none" stroke="black" cx="1009.84" cy="-522" rx="67.69" ry="18"/>
<text text-anchor="middle" x="1009.84" y="-518.3" font-family="Times,serif" font-size="14.00">devinet_init_net</text>
</g>
<!-- devinet_init_net&#45;&gt;register_net_sysctl -->
<g id="edge14" class="edge">
<title>devinet_init_net&#45;&gt;register_net_sysctl</title>
<path fill="none" stroke="black" d="M1009.84,-503.7C1009.84,-495.98 1009.84,-486.71 1009.84,-478.11"/>
<polygon fill="black" stroke="black" points="1013.34,-478.1 1009.84,-468.1 1006.34,-478.1 1013.34,-478.1"/>
</g>
<!-- sysctl_check_table -->
<g id="node17" class="node">
<title>sysctl_check_table</title>
<ellipse fill="none" stroke="black" cx="1109.84" cy="-306" rx="77.19" ry="18"/>
<text text-anchor="middle" x="1109.84" y="-302.3" font-family="Times,serif" font-size="14.00">sysctl_check_table</text>
</g>
<!-- __register_sysctl_table&#45;&gt;sysctl_check_table -->
<g id="edge15" class="edge">
<title>__register_sysctl_table&#45;&gt;sysctl_check_table</title>
<path fill="none" stroke="black" d="M1109.84,-359.7C1109.84,-351.98 1109.84,-342.71 1109.84,-334.11"/>
<polygon fill="black" stroke="black" points="1113.34,-334.1 1109.84,-324.1 1106.34,-334.1 1113.34,-334.1"/>
</g>
<!-- DEVINET_SYSCTL_FLUSHING_ENTRY -->
<g id="node18" class="node">
<title>DEVINET_SYSCTL_FLUSHING_ENTRY</title>
<ellipse fill="none" stroke="black" cx="455.84" cy="-522" rx="167.07" ry="18"/>
<text text-anchor="middle" x="455.84" y="-518.3" font-family="Times,serif" font-size="14.00">DEVINET_SYSCTL_FLUSHING_ENTRY</text>
</g>
<!-- DEVINET_SYSCTL_FLUSHING_ENTRY&#45;&gt;DEVINET_SYSCTL_COMPLEX_ENTRY -->
<g id="edge17" class="edge">
<title>DEVINET_SYSCTL_FLUSHING_ENTRY&#45;&gt;DEVINET_SYSCTL_COMPLEX_ENTRY</title>
<path fill="none" stroke="black" d="M455.84,-503.7C455.84,-495.98 455.84,-486.71 455.84,-478.11"/>
<polygon fill="black" stroke="black" points="459.34,-478.1 455.84,-468.1 452.34,-478.1 459.34,-478.1"/>
</g>
</g>
</svg>
