<?xml version="1.0" encoding="UTF-8" standalone="no"?>
<!DOCTYPE svg PUBLIC "-//W3C//DTD SVG 1.1//EN"
 "http://www.w3.org/Graphics/SVG/1.1/DTD/svg11.dtd">
<!-- Generated by graphviz version 2.43.0 (0)
 -->
<!-- Title: ip_forward.dot Pages: 1 -->
<svg width="1324pt" height="548pt"
 viewBox="0.00 0.00 1324.18 548.00" xmlns="http://www.w3.org/2000/svg" xmlns:xlink="http://www.w3.org/1999/xlink">
<g id="graph0" class="graph" transform="scale(1 1) rotate(0) translate(4 544)">
<title>ip_forward.dot</title>
<polygon fill="white" stroke="transparent" points="-4,4 -4,-544 1320.18,-544 1320.18,4 -4,4"/>
<!-- DEVINET_SYSCTL_RO_ENTRY -->
<g id="node1" class="node">
<title>DEVINET_SYSCTL_RO_ENTRY</title>
<ellipse fill="none" stroke="black" cx="135.84" cy="-450" rx="135.68" ry="18"/>
<text text-anchor="middle" x="135.84" y="-446.3" font-family="Times,serif" font-size="14.00">DEVINET_SYSCTL_RO_ENTRY</text>
</g>
<!-- DEVINET_SYSCTL_ENTRY -->
<g id="node2" class="node">
<title>DEVINET_SYSCTL_ENTRY</title>
<ellipse fill="none" stroke="black" cx="455.84" cy="-378" rx="119.68" ry="18"/>
<text text-anchor="middle" x="455.84" y="-374.3" font-family="Times,serif" font-size="14.00">DEVINET_SYSCTL_ENTRY</text>
</g>
<!-- DEVINET_SYSCTL_RO_ENTRY&#45;&gt;DEVINET_SYSCTL_ENTRY -->
<g id="edge1" class="edge">
<title>DEVINET_SYSCTL_RO_ENTRY&#45;&gt;DEVINET_SYSCTL_ENTRY</title>
<path fill="none" stroke="black" d="M202.92,-434.33C255.02,-422.93 327.25,-407.13 381.18,-395.33"/>
<polygon fill="black" stroke="black" points="382.01,-398.73 391.03,-393.18 380.51,-391.89 382.01,-398.73"/>
</g>
<!-- DEVINET_SYSCTL_COMPLEX_ENTRY -->
<g id="node3" class="node">
<title>DEVINET_SYSCTL_COMPLEX_ENTRY</title>
<ellipse fill="none" stroke="black" cx="455.84" cy="-450" rx="166.27" ry="18"/>
<text text-anchor="middle" x="455.84" y="-446.3" font-family="Times,serif" font-size="14.00">DEVINET_SYSCTL_COMPLEX_ENTRY</text>
</g>
<!-- DEVINET_SYSCTL_COMPLEX_ENTRY&#45;&gt;DEVINET_SYSCTL_ENTRY -->
<g id="edge2" class="edge">
<title>DEVINET_SYSCTL_COMPLEX_ENTRY&#45;&gt;DEVINET_SYSCTL_ENTRY</title>
<path fill="none" stroke="black" d="M455.84,-431.7C455.84,-423.98 455.84,-414.71 455.84,-406.11"/>
<polygon fill="black" stroke="black" points="459.34,-406.1 455.84,-396.1 452.34,-406.1 459.34,-406.1"/>
</g>
<!-- DEVINET_SYSCTL_RW_ENTRY -->
<g id="node4" class="node">
<title>DEVINET_SYSCTL_RW_ENTRY</title>
<ellipse fill="none" stroke="black" cx="777.84" cy="-450" rx="137.58" ry="18"/>
<text text-anchor="middle" x="777.84" y="-446.3" font-family="Times,serif" font-size="14.00">DEVINET_SYSCTL_RW_ENTRY</text>
</g>
<!-- DEVINET_SYSCTL_RW_ENTRY&#45;&gt;DEVINET_SYSCTL_ENTRY -->
<g id="edge3" class="edge">
<title>DEVINET_SYSCTL_RW_ENTRY&#45;&gt;DEVINET_SYSCTL_ENTRY</title>
<path fill="none" stroke="black" d="M709.94,-434.24C657.49,-422.84 584.93,-407.06 530.78,-395.29"/>
<polygon fill="black" stroke="black" points="531.41,-391.85 520.89,-393.14 529.92,-398.69 531.41,-391.85"/>
</g>
<!-- register_net_sysctl -->
<g id="node5" class="node">
<title>register_net_sysctl</title>
<ellipse fill="none" stroke="black" cx="1009.84" cy="-450" rx="76.89" ry="18"/>
<text text-anchor="middle" x="1009.84" y="-446.3" font-family="Times,serif" font-size="14.00">register_net_sysctl</text>
</g>
<!-- ensure_safe_net_sysctl -->
<g id="node6" class="node">
<title>ensure_safe_net_sysctl</title>
<ellipse fill="none" stroke="black" cx="908.84" cy="-378" rx="91.78" ry="18"/>
<text text-anchor="middle" x="908.84" y="-374.3" font-family="Times,serif" font-size="14.00">ensure_safe_net_sysctl</text>
</g>
<!-- register_net_sysctl&#45;&gt;ensure_safe_net_sysctl -->
<g id="edge4" class="edge">
<title>register_net_sysctl&#45;&gt;ensure_safe_net_sysctl</title>
<path fill="none" stroke="black" d="M986.41,-432.76C972.97,-423.45 955.89,-411.61 941.18,-401.41"/>
<polygon fill="black" stroke="black" points="943.05,-398.45 932.84,-395.63 939.06,-404.21 943.05,-398.45"/>
</g>
<!-- __register_sysctl_table -->
<g id="node17" class="node">
<title>__register_sysctl_table</title>
<ellipse fill="none" stroke="black" cx="1109.84" cy="-378" rx="91.78" ry="18"/>
<text text-anchor="middle" x="1109.84" y="-374.3" font-family="Times,serif" font-size="14.00">__register_sysctl_table</text>
</g>
<!-- register_net_sysctl&#45;&gt;__register_sysctl_table -->
<g id="edge15" class="edge">
<title>register_net_sysctl&#45;&gt;__register_sysctl_table</title>
<path fill="none" stroke="black" d="M1033.03,-432.76C1046.34,-423.45 1063.25,-411.61 1077.82,-401.41"/>
<polygon fill="black" stroke="black" points="1079.89,-404.24 1086.08,-395.63 1075.88,-398.5 1079.89,-404.24"/>
</g>
<!-- is_module_address -->
<g id="node7" class="node">
<title>is_module_address</title>
<ellipse fill="none" stroke="black" cx="908.84" cy="-306" rx="78.79" ry="18"/>
<text text-anchor="middle" x="908.84" y="-302.3" font-family="Times,serif" font-size="14.00">is_module_address</text>
</g>
<!-- ensure_safe_net_sysctl&#45;&gt;is_module_address -->
<g id="edge5" class="edge">
<title>ensure_safe_net_sysctl&#45;&gt;is_module_address</title>
<path fill="none" stroke="black" d="M908.84,-359.7C908.84,-351.98 908.84,-342.71 908.84,-334.11"/>
<polygon fill="black" stroke="black" points="912.34,-334.1 908.84,-324.1 905.34,-334.1 912.34,-334.1"/>
</g>
<!-- __module_address -->
<g id="node8" class="node">
<title>__module_address</title>
<ellipse fill="none" stroke="black" cx="908.84" cy="-234" rx="77.19" ry="18"/>
<text text-anchor="middle" x="908.84" y="-230.3" font-family="Times,serif" font-size="14.00">__module_address</text>
</g>
<!-- is_module_address&#45;&gt;__module_address -->
<g id="edge6" class="edge">
<title>is_module_address&#45;&gt;__module_address</title>
<path fill="none" stroke="black" d="M908.84,-287.7C908.84,-279.98 908.84,-270.71 908.84,-262.11"/>
<polygon fill="black" stroke="black" points="912.34,-262.1 908.84,-252.1 905.34,-262.1 912.34,-262.1"/>
</g>
<!-- mod_find -->
<g id="node11" class="node">
<title>mod_find</title>
<ellipse fill="none" stroke="black" cx="831.84" cy="-162" rx="45.49" ry="18"/>
<text text-anchor="middle" x="831.84" y="-158.3" font-family="Times,serif" font-size="14.00">mod_find</text>
</g>
<!-- __module_address&#45;&gt;mod_find -->
<g id="edge9" class="edge">
<title>__module_address&#45;&gt;mod_find</title>
<path fill="none" stroke="black" d="M890.59,-216.41C880.5,-207.24 867.81,-195.7 856.81,-185.7"/>
<polygon fill="black" stroke="black" points="858.92,-182.89 849.16,-178.75 854.21,-188.07 858.92,-182.89"/>
</g>
<!-- BUG_ON -->
<g id="node12" class="node">
<title>BUG_ON</title>
<ellipse fill="none" stroke="black" cx="941.84" cy="-162" rx="46.29" ry="18"/>
<text text-anchor="middle" x="941.84" y="-158.3" font-family="Times,serif" font-size="14.00">BUG_ON</text>
</g>
<!-- __module_address&#45;&gt;BUG_ON -->
<g id="edge10" class="edge">
<title>__module_address&#45;&gt;BUG_ON</title>
<path fill="none" stroke="black" d="M916.83,-216.05C920.64,-207.97 925.28,-198.12 929.53,-189.11"/>
<polygon fill="black" stroke="black" points="932.82,-190.33 933.92,-179.79 926.49,-187.34 932.82,-190.33"/>
</g>
<!-- latch_tree_find -->
<g id="node9" class="node">
<title>latch_tree_find</title>
<ellipse fill="none" stroke="black" cx="831.84" cy="-90" rx="63.89" ry="18"/>
<text text-anchor="middle" x="831.84" y="-86.3" font-family="Times,serif" font-size="14.00">latch_tree_find</text>
</g>
<!-- __lt_find -->
<g id="node10" class="node">
<title>__lt_find</title>
<ellipse fill="none" stroke="black" cx="831.84" cy="-18" rx="42.79" ry="18"/>
<text text-anchor="middle" x="831.84" y="-14.3" font-family="Times,serif" font-size="14.00">__lt_find</text>
</g>
<!-- latch_tree_find&#45;&gt;__lt_find -->
<g id="edge7" class="edge">
<title>latch_tree_find&#45;&gt;__lt_find</title>
<path fill="none" stroke="black" d="M831.84,-71.7C831.84,-63.98 831.84,-54.71 831.84,-46.11"/>
<polygon fill="black" stroke="black" points="835.34,-46.1 831.84,-36.1 828.34,-46.1 835.34,-46.1"/>
</g>
<!-- mod_find&#45;&gt;latch_tree_find -->
<g id="edge8" class="edge">
<title>mod_find&#45;&gt;latch_tree_find</title>
<path fill="none" stroke="black" d="M831.84,-143.7C831.84,-135.98 831.84,-126.71 831.84,-118.11"/>
<polygon fill="black" stroke="black" points="835.34,-118.1 831.84,-108.1 828.34,-118.1 835.34,-118.1"/>
</g>
<!-- devinet_init_net -->
<g id="node13" class="node">
<title>devinet_init_net</title>
<ellipse fill="none" stroke="black" cx="1009.84" cy="-522" rx="67.69" ry="18"/>
<text text-anchor="middle" x="1009.84" y="-518.3" font-family="Times,serif" font-size="14.00">devinet_init_net</text>
</g>
<!-- devinet_init_net&#45;&gt;register_net_sysctl -->
<g id="edge11" class="edge">
<title>devinet_init_net&#45;&gt;register_net_sysctl</title>
<path fill="none" stroke="black" d="M1009.84,-503.7C1009.84,-495.98 1009.84,-486.71 1009.84,-478.11"/>
<polygon fill="black" stroke="black" points="1013.34,-478.1 1009.84,-468.1 1006.34,-478.1 1013.34,-478.1"/>
</g>
<!-- insert_links -->
<g id="node14" class="node">
<title>insert_links</title>
<ellipse fill="none" stroke="black" cx="1085.84" cy="-234" rx="51.99" ry="18"/>
<text text-anchor="middle" x="1085.84" y="-230.3" font-family="Times,serif" font-size="14.00">insert_links</text>
</g>
<!-- new_links -->
<g id="node15" class="node">
<title>new_links</title>
<ellipse fill="none" stroke="black" cx="1085.84" cy="-162" rx="46.59" ry="18"/>
<text text-anchor="middle" x="1085.84" y="-158.3" font-family="Times,serif" font-size="14.00">new_links</text>
</g>
<!-- insert_links&#45;&gt;new_links -->
<g id="edge12" class="edge">
<title>insert_links&#45;&gt;new_links</title>
<path fill="none" stroke="black" d="M1085.84,-215.7C1085.84,-207.98 1085.84,-198.71 1085.84,-190.11"/>
<polygon fill="black" stroke="black" points="1089.34,-190.1 1085.84,-180.1 1082.34,-190.1 1089.34,-190.1"/>
</g>
<!-- insert_header -->
<g id="node16" class="node">
<title>insert_header</title>
<ellipse fill="none" stroke="black" cx="1085.84" cy="-306" rx="57.69" ry="18"/>
<text text-anchor="middle" x="1085.84" y="-302.3" font-family="Times,serif" font-size="14.00">insert_header</text>
</g>
<!-- insert_header&#45;&gt;insert_links -->
<g id="edge13" class="edge">
<title>insert_header&#45;&gt;insert_links</title>
<path fill="none" stroke="black" d="M1085.84,-287.7C1085.84,-279.98 1085.84,-270.71 1085.84,-262.11"/>
<polygon fill="black" stroke="black" points="1089.34,-262.1 1085.84,-252.1 1082.34,-262.1 1089.34,-262.1"/>
</g>
<!-- __register_sysctl_table&#45;&gt;insert_header -->
<g id="edge14" class="edge">
<title>__register_sysctl_table&#45;&gt;insert_header</title>
<path fill="none" stroke="black" d="M1103.91,-359.7C1101.23,-351.9 1098.01,-342.51 1095.04,-333.83"/>
<polygon fill="black" stroke="black" points="1098.26,-332.43 1091.7,-324.1 1091.63,-334.7 1098.26,-332.43"/>
</g>
<!-- sysctl_check_table -->
<g id="node18" class="node">
<title>sysctl_check_table</title>
<ellipse fill="none" stroke="black" cx="1238.84" cy="-306" rx="77.19" ry="18"/>
<text text-anchor="middle" x="1238.84" y="-302.3" font-family="Times,serif" font-size="14.00">sysctl_check_table</text>
</g>
<!-- __register_sysctl_table&#45;&gt;sysctl_check_table -->
<g id="edge16" class="edge">
<title>__register_sysctl_table&#45;&gt;sysctl_check_table</title>
<path fill="none" stroke="black" d="M1139.43,-360.94C1157.67,-351.04 1181.24,-338.26 1200.84,-327.62"/>
<polygon fill="black" stroke="black" points="1202.7,-330.59 1209.83,-322.74 1199.37,-324.44 1202.7,-330.59"/>
</g>
<!-- DEVINET_SYSCTL_FLUSHING_ENTRY -->
<g id="node19" class="node">
<title>DEVINET_SYSCTL_FLUSHING_ENTRY</title>
<ellipse fill="none" stroke="black" cx="455.84" cy="-522" rx="167.07" ry="18"/>
<text text-anchor="middle" x="455.84" y="-518.3" font-family="Times,serif" font-size="14.00">DEVINET_SYSCTL_FLUSHING_ENTRY</text>
</g>
<!-- DEVINET_SYSCTL_FLUSHING_ENTRY&#45;&gt;DEVINET_SYSCTL_COMPLEX_ENTRY -->
<g id="edge17" class="edge">
<title>DEVINET_SYSCTL_FLUSHING_ENTRY&#45;&gt;DEVINET_SYSCTL_COMPLEX_ENTRY</title>
<path fill="none" stroke="black" d="M455.84,-503.7C455.84,-495.98 455.84,-486.71 455.84,-478.11"/>
<polygon fill="black" stroke="black" points="459.34,-478.1 455.84,-468.1 452.34,-478.1 459.34,-478.1"/>
</g>
</g>
</svg>
