<?xml version="1.0" encoding="UTF-8" standalone="no"?>
<!DOCTYPE svg PUBLIC "-//W3C//DTD SVG 1.1//EN"
 "http://www.w3.org/Graphics/SVG/1.1/DTD/svg11.dtd">
<!-- Generated by graphviz version 2.43.0 (0)
 -->
<!-- Title: /home/cendes/Documents/masters_thesis/ocloz/knob_graph_search/./ip_forward.dot Pages: 1 -->
<svg width="2035pt" height="620pt"
 viewBox="0.00 0.00 2034.79 620.00" xmlns="http://www.w3.org/2000/svg" xmlns:xlink="http://www.w3.org/1999/xlink">
<g id="graph0" class="graph" transform="scale(1 1) rotate(0) translate(4 616)">
<title>/home/cendes/Documents/masters_thesis/ocloz/knob_graph_search/./ip_forward.dot</title>
<polygon fill="white" stroke="transparent" points="-4,4 -4,-616 2030.79,-616 2030.79,4 -4,4"/>
<!-- devinet_init_net -->
<g id="node1" class="node">
<title>devinet_init_net</title>
<ellipse fill="none" stroke="black" cx="112" cy="-594" rx="67.69" ry="18"/>
<text text-anchor="middle" x="112" y="-590.3" font-family="Times,serif" font-size="14.00">devinet_init_net</text>
</g>
<!-- _ROOT_ -->
<g id="node2" class="node">
<title>_ROOT_</title>
<ellipse fill="none" stroke="black" cx="496" cy="-18" rx="43.59" ry="18"/>
<text text-anchor="middle" x="496" y="-14.3" font-family="Times,serif" font-size="14.00">_ROOT_</text>
</g>
<!-- devinet_init_net&#45;&gt;_ROOT_ -->
<g id="edge1" class="edge">
<title>devinet_init_net&#45;&gt;_ROOT_</title>
<path fill="none" stroke="black" d="M87.14,-577.05C54.15,-553.71 0,-506.89 0,-451 0,-451 0,-451 0,-161 0,-69.63 315.01,-33.71 442.95,-22.89"/>
<polygon fill="black" stroke="black" points="443.6,-26.34 453.28,-22.03 443.03,-19.37 443.6,-26.34"/>
</g>
<!-- register_net_sysctl -->
<g id="node18" class="node">
<title>register_net_sysctl</title>
<ellipse fill="none" stroke="black" cx="200" cy="-522" rx="76.89" ry="18"/>
<text text-anchor="middle" x="200" y="-518.3" font-family="Times,serif" font-size="14.00">register_net_sysctl</text>
</g>
<!-- devinet_init_net&#45;&gt;register_net_sysctl -->
<g id="edge33" class="edge">
<title>devinet_init_net&#45;&gt;register_net_sysctl</title>
<path fill="none" stroke="black" d="M132.41,-576.76C143.99,-567.55 158.66,-555.88 171.38,-545.77"/>
<polygon fill="black" stroke="black" points="173.75,-548.35 179.4,-539.39 169.39,-542.88 173.75,-548.35"/>
</g>
<!-- sysctl_check_table -->
<g id="node3" class="node">
<title>sysctl_check_table</title>
<ellipse fill="none" stroke="black" cx="105" cy="-234" rx="77.19" ry="18"/>
<text text-anchor="middle" x="105" y="-230.3" font-family="Times,serif" font-size="14.00">sysctl_check_table</text>
</g>
<!-- sysctl_check_table&#45;&gt;_ROOT_ -->
<g id="edge2" class="edge">
<title>sysctl_check_table&#45;&gt;_ROOT_</title>
<path fill="none" stroke="black" d="M110.81,-215.82C123.13,-182.24 155.22,-108.01 209,-72 246.62,-46.81 371.58,-30.96 443.6,-23.69"/>
<polygon fill="black" stroke="black" points="444.22,-27.14 453.83,-22.68 443.53,-20.18 444.22,-27.14"/>
</g>
<!-- __register_sysctl_table -->
<g id="node4" class="node">
<title>__register_sysctl_table</title>
<ellipse fill="none" stroke="black" cx="200" cy="-306" rx="91.78" ry="18"/>
<text text-anchor="middle" x="200" y="-302.3" font-family="Times,serif" font-size="14.00">__register_sysctl_table</text>
</g>
<!-- __register_sysctl_table&#45;&gt;sysctl_check_table -->
<g id="edge3" class="edge">
<title>__register_sysctl_table&#45;&gt;sysctl_check_table</title>
<path fill="none" stroke="black" d="M177.49,-288.41C164.95,-279.17 149.16,-267.54 135.52,-257.49"/>
<polygon fill="black" stroke="black" points="137.48,-254.58 127.35,-251.47 133.33,-260.22 137.48,-254.58"/>
</g>
<!-- insert_header -->
<g id="node23" class="node">
<title>insert_header</title>
<ellipse fill="none" stroke="black" cx="258" cy="-234" rx="57.69" ry="18"/>
<text text-anchor="middle" x="258" y="-230.3" font-family="Times,serif" font-size="14.00">insert_header</text>
</g>
<!-- __register_sysctl_table&#45;&gt;insert_header -->
<g id="edge35" class="edge">
<title>__register_sysctl_table&#45;&gt;insert_header</title>
<path fill="none" stroke="black" d="M214.04,-288.05C221.09,-279.54 229.77,-269.07 237.55,-259.68"/>
<polygon fill="black" stroke="black" points="240.4,-261.72 244.09,-251.79 235.01,-257.26 240.4,-261.72"/>
</g>
<!-- new_links -->
<g id="node5" class="node">
<title>new_links</title>
<ellipse fill="none" stroke="black" cx="265" cy="-90" rx="46.59" ry="18"/>
<text text-anchor="middle" x="265" y="-86.3" font-family="Times,serif" font-size="14.00">new_links</text>
</g>
<!-- new_links&#45;&gt;_ROOT_ -->
<g id="edge4" class="edge">
<title>new_links&#45;&gt;_ROOT_</title>
<path fill="none" stroke="black" d="M300.59,-78.22C341.33,-65.87 408.09,-45.64 452.05,-32.32"/>
<polygon fill="black" stroke="black" points="453.32,-35.59 461.88,-29.34 451.29,-28.89 453.32,-35.59"/>
</g>
<!-- insert_links -->
<g id="node6" class="node">
<title>insert_links</title>
<ellipse fill="none" stroke="black" cx="261" cy="-162" rx="51.99" ry="18"/>
<text text-anchor="middle" x="261" y="-158.3" font-family="Times,serif" font-size="14.00">insert_links</text>
</g>
<!-- insert_links&#45;&gt;new_links -->
<g id="edge5" class="edge">
<title>insert_links&#45;&gt;new_links</title>
<path fill="none" stroke="black" d="M261.99,-143.7C262.43,-135.98 262.96,-126.71 263.45,-118.11"/>
<polygon fill="black" stroke="black" points="266.95,-118.29 264.02,-108.1 259.96,-117.89 266.95,-118.29"/>
</g>
<!-- core_kernel_data -->
<g id="node7" class="node">
<title>core_kernel_data</title>
<ellipse fill="none" stroke="black" cx="443" cy="-378" rx="71.49" ry="18"/>
<text text-anchor="middle" x="443" y="-374.3" font-family="Times,serif" font-size="14.00">core_kernel_data</text>
</g>
<!-- core_kernel_data&#45;&gt;_ROOT_ -->
<g id="edge6" class="edge">
<title>core_kernel_data&#45;&gt;_ROOT_</title>
<path fill="none" stroke="black" d="M429.05,-360.26C421.32,-350.27 412.07,-337.02 406,-324 388.68,-286.87 382,-275.97 382,-235 382,-235 382,-235 382,-161 382,-120.03 381.17,-104.59 406,-72 418.42,-55.69 437.43,-43.45 454.78,-34.86"/>
<polygon fill="black" stroke="black" points="456.61,-37.87 464.19,-30.47 453.65,-31.53 456.61,-37.87"/>
</g>
<!-- ensure_safe_net_sysctl -->
<g id="node8" class="node">
<title>ensure_safe_net_sysctl</title>
<ellipse fill="none" stroke="black" cx="369" cy="-450" rx="91.78" ry="18"/>
<text text-anchor="middle" x="369" y="-446.3" font-family="Times,serif" font-size="14.00">ensure_safe_net_sysctl</text>
</g>
<!-- ensure_safe_net_sysctl&#45;&gt;_ROOT_ -->
<g id="edge27" class="edge">
<title>ensure_safe_net_sysctl&#45;&gt;_ROOT_</title>
<path fill="none" stroke="black" d="M363.94,-431.68C356.64,-405.11 344,-352.56 344,-307 344,-307 344,-307 344,-161 344,-117.81 352.86,-102.93 383,-72 401.46,-53.06 428.01,-40.13 450.73,-31.79"/>
<polygon fill="black" stroke="black" points="451.91,-35.09 460.2,-28.49 449.61,-28.47 451.91,-35.09"/>
</g>
<!-- ensure_safe_net_sysctl&#45;&gt;core_kernel_data -->
<g id="edge7" class="edge">
<title>ensure_safe_net_sysctl&#45;&gt;core_kernel_data</title>
<path fill="none" stroke="black" d="M386.91,-432.05C396.25,-423.22 407.83,-412.27 418.03,-402.62"/>
<polygon fill="black" stroke="black" points="420.65,-404.96 425.51,-395.55 415.84,-399.88 420.65,-404.96"/>
</g>
<!-- is_module_address -->
<g id="node17" class="node">
<title>is_module_address</title>
<ellipse fill="none" stroke="black" cx="611" cy="-378" rx="78.79" ry="18"/>
<text text-anchor="middle" x="611" y="-374.3" font-family="Times,serif" font-size="14.00">is_module_address</text>
</g>
<!-- ensure_safe_net_sysctl&#45;&gt;is_module_address -->
<g id="edge26" class="edge">
<title>ensure_safe_net_sysctl&#45;&gt;is_module_address</title>
<path fill="none" stroke="black" d="M418.26,-434.75C457.8,-423.31 513.32,-407.25 554.63,-395.31"/>
<polygon fill="black" stroke="black" points="555.64,-398.66 564.27,-392.52 553.69,-391.93 555.64,-398.66"/>
</g>
<!-- BUG_ON -->
<g id="node9" class="node">
<title>BUG_ON</title>
<ellipse fill="none" stroke="black" cx="542" cy="-234" rx="46.29" ry="18"/>
<text text-anchor="middle" x="542" y="-230.3" font-family="Times,serif" font-size="14.00">BUG_ON</text>
</g>
<!-- BUG_ON&#45;&gt;_ROOT_ -->
<g id="edge8" class="edge">
<title>BUG_ON&#45;&gt;_ROOT_</title>
<path fill="none" stroke="black" d="M538.31,-215.85C530.34,-178.75 511.44,-90.81 501.83,-46.1"/>
<polygon fill="black" stroke="black" points="505.23,-45.27 499.7,-36.23 498.38,-46.74 505.23,-45.27"/>
</g>
<!-- __module_address -->
<g id="node10" class="node">
<title>__module_address</title>
<ellipse fill="none" stroke="black" cx="611" cy="-306" rx="77.19" ry="18"/>
<text text-anchor="middle" x="611" y="-302.3" font-family="Times,serif" font-size="14.00">__module_address</text>
</g>
<!-- __module_address&#45;&gt;_ROOT_ -->
<g id="edge23" class="edge">
<title>__module_address&#45;&gt;_ROOT_</title>
<path fill="none" stroke="black" d="M551.47,-294.43C527.21,-286.88 501.51,-273.98 487,-252 444.91,-188.24 469.77,-91.86 485.74,-45.6"/>
<polygon fill="black" stroke="black" points="489.1,-46.6 489.18,-36.01 482.51,-44.24 489.1,-46.6"/>
</g>
<!-- __module_address&#45;&gt;BUG_ON -->
<g id="edge9" class="edge">
<title>__module_address&#45;&gt;BUG_ON</title>
<path fill="none" stroke="black" d="M594.3,-288.05C585.61,-279.24 574.85,-268.33 565.36,-258.69"/>
<polygon fill="black" stroke="black" points="567.59,-255.97 558.07,-251.31 562.6,-260.89 567.59,-255.97"/>
</g>
<!-- within_module -->
<g id="node12" class="node">
<title>within_module</title>
<ellipse fill="none" stroke="black" cx="643" cy="-162" rx="64.19" ry="18"/>
<text text-anchor="middle" x="643" y="-158.3" font-family="Times,serif" font-size="14.00">within_module</text>
</g>
<!-- __module_address&#45;&gt;within_module -->
<g id="edge15" class="edge">
<title>__module_address&#45;&gt;within_module</title>
<path fill="none" stroke="black" d="M614.86,-287.87C620.34,-263.56 630.42,-218.82 636.91,-190.01"/>
<polygon fill="black" stroke="black" points="640.34,-190.71 639.13,-180.19 633.51,-189.18 640.34,-190.71"/>
</g>
<!-- mod_find -->
<g id="node14" class="node">
<title>mod_find</title>
<ellipse fill="none" stroke="black" cx="822" cy="-234" rx="45.49" ry="18"/>
<text text-anchor="middle" x="822" y="-230.3" font-family="Times,serif" font-size="14.00">mod_find</text>
</g>
<!-- __module_address&#45;&gt;mod_find -->
<g id="edge22" class="edge">
<title>__module_address&#45;&gt;mod_find</title>
<path fill="none" stroke="black" d="M653.45,-290.92C689.75,-278.88 741.78,-261.61 778.4,-249.46"/>
<polygon fill="black" stroke="black" points="779.91,-252.65 788.3,-246.18 777.71,-246.01 779.91,-252.65"/>
</g>
<!-- within_module_init -->
<g id="node11" class="node">
<title>within_module_init</title>
<ellipse fill="none" stroke="black" cx="643" cy="-90" rx="80.69" ry="18"/>
<text text-anchor="middle" x="643" y="-86.3" font-family="Times,serif" font-size="14.00">within_module_init</text>
</g>
<!-- within_module_init&#45;&gt;_ROOT_ -->
<g id="edge10" class="edge">
<title>within_module_init&#45;&gt;_ROOT_</title>
<path fill="none" stroke="black" d="M610.38,-73.46C587.38,-62.51 556.55,-47.83 532.69,-36.47"/>
<polygon fill="black" stroke="black" points="534.13,-33.28 523.6,-32.14 531.12,-39.6 534.13,-33.28"/>
</g>
<!-- within_module&#45;&gt;_ROOT_ -->
<g id="edge14" class="edge">
<title>within_module&#45;&gt;_ROOT_</title>
<path fill="none" stroke="black" d="M610.11,-146.36C591.87,-137.14 569.59,-123.98 553,-108 534.01,-89.71 518.38,-63.9 508.32,-44.79"/>
<polygon fill="black" stroke="black" points="511.36,-43.06 503.71,-35.74 505.13,-46.24 511.36,-43.06"/>
</g>
<!-- within_module&#45;&gt;within_module_init -->
<g id="edge11" class="edge">
<title>within_module&#45;&gt;within_module_init</title>
<path fill="none" stroke="black" d="M643,-143.7C643,-135.98 643,-126.71 643,-118.11"/>
<polygon fill="black" stroke="black" points="646.5,-118.1 643,-108.1 639.5,-118.1 646.5,-118.1"/>
</g>
<!-- within_module_core -->
<g id="node13" class="node">
<title>within_module_core</title>
<ellipse fill="none" stroke="black" cx="825" cy="-90" rx="83.69" ry="18"/>
<text text-anchor="middle" x="825" y="-86.3" font-family="Times,serif" font-size="14.00">within_module_core</text>
</g>
<!-- within_module&#45;&gt;within_module_core -->
<g id="edge13" class="edge">
<title>within_module&#45;&gt;within_module_core</title>
<path fill="none" stroke="black" d="M679.39,-147C707.19,-136.31 745.78,-121.47 776.25,-109.75"/>
<polygon fill="black" stroke="black" points="777.76,-112.92 785.84,-106.06 775.25,-106.39 777.76,-112.92"/>
</g>
<!-- within_module_core&#45;&gt;_ROOT_ -->
<g id="edge12" class="edge">
<title>within_module_core&#45;&gt;_ROOT_</title>
<path fill="none" stroke="black" d="M767.69,-76.81C704.17,-63.29 602.88,-41.74 543.57,-29.12"/>
<polygon fill="black" stroke="black" points="544.22,-25.68 533.71,-27.02 542.76,-32.53 544.22,-25.68"/>
</g>
<!-- mod_find&#45;&gt;_ROOT_ -->
<g id="edge21" class="edge">
<title>mod_find&#45;&gt;_ROOT_</title>
<path fill="none" stroke="black" d="M843.21,-217.81C882.7,-187.74 959.88,-119.46 918,-72 893.95,-44.74 657.26,-28.06 549.25,-21.81"/>
<polygon fill="black" stroke="black" points="549.39,-18.31 539.21,-21.24 548.99,-25.3 549.39,-18.31"/>
</g>
<!-- mod_find&#45;&gt;within_module -->
<g id="edge16" class="edge">
<title>mod_find&#45;&gt;within_module</title>
<path fill="none" stroke="black" d="M790.82,-220.81C762.5,-209.73 720.38,-193.26 688.33,-180.73"/>
<polygon fill="black" stroke="black" points="689.33,-177.36 678.74,-176.98 686.78,-183.88 689.33,-177.36"/>
</g>
<!-- latch_tree_find -->
<g id="node16" class="node">
<title>latch_tree_find</title>
<ellipse fill="none" stroke="black" cx="1029" cy="-162" rx="63.89" ry="18"/>
<text text-anchor="middle" x="1029" y="-158.3" font-family="Times,serif" font-size="14.00">latch_tree_find</text>
</g>
<!-- mod_find&#45;&gt;latch_tree_find -->
<g id="edge20" class="edge">
<title>mod_find&#45;&gt;latch_tree_find</title>
<path fill="none" stroke="black" d="M855.72,-221.6C889.37,-210.22 941.45,-192.61 979.73,-179.66"/>
<polygon fill="black" stroke="black" points="981.29,-182.83 989.64,-176.31 979.04,-176.2 981.29,-182.83"/>
</g>
<!-- __lt_find -->
<g id="node15" class="node">
<title>__lt_find</title>
<ellipse fill="none" stroke="black" cx="1046" cy="-90" rx="42.79" ry="18"/>
<text text-anchor="middle" x="1046" y="-86.3" font-family="Times,serif" font-size="14.00">__lt_find</text>
</g>
<!-- __lt_find&#45;&gt;_ROOT_ -->
<g id="edge17" class="edge">
<title>__lt_find&#45;&gt;_ROOT_</title>
<path fill="none" stroke="black" d="M1013.4,-78.16C1005.49,-75.84 997,-73.61 989,-72 830.95,-40.21 640.3,-26.57 549.33,-21.54"/>
<polygon fill="black" stroke="black" points="549.44,-18.04 539.27,-20.99 549.06,-25.03 549.44,-18.04"/>
</g>
<!-- latch_tree_find&#45;&gt;_ROOT_ -->
<g id="edge19" class="edge">
<title>latch_tree_find&#45;&gt;_ROOT_</title>
<path fill="none" stroke="black" d="M1019.42,-143.85C1006.74,-122.96 982.29,-88.43 951,-72 882.35,-35.95 654.27,-24.07 549.49,-20.45"/>
<polygon fill="black" stroke="black" points="549.55,-16.95 539.44,-20.12 549.32,-23.95 549.55,-16.95"/>
</g>
<!-- latch_tree_find&#45;&gt;__lt_find -->
<g id="edge18" class="edge">
<title>latch_tree_find&#45;&gt;__lt_find</title>
<path fill="none" stroke="black" d="M1033.2,-143.7C1035.1,-135.9 1037.38,-126.51 1039.48,-117.83"/>
<polygon fill="black" stroke="black" points="1042.89,-118.65 1041.85,-108.1 1036.08,-117 1042.89,-118.65"/>
</g>
<!-- is_module_address&#45;&gt;_ROOT_ -->
<g id="edge25" class="edge">
<title>is_module_address&#45;&gt;_ROOT_</title>
<path fill="none" stroke="black" d="M561.81,-363.8C505.22,-345.28 420,-305.66 420,-235 420,-235 420,-235 420,-161 420,-114.88 451.55,-69.24 473.99,-42.61"/>
<polygon fill="black" stroke="black" points="476.71,-44.82 480.62,-34.98 471.42,-40.24 476.71,-44.82"/>
</g>
<!-- is_module_address&#45;&gt;__module_address -->
<g id="edge24" class="edge">
<title>is_module_address&#45;&gt;__module_address</title>
<path fill="none" stroke="black" d="M611,-359.7C611,-351.98 611,-342.71 611,-334.11"/>
<polygon fill="black" stroke="black" points="614.5,-334.1 611,-324.1 607.5,-334.1 614.5,-334.1"/>
</g>
<!-- register_net_sysctl&#45;&gt;__register_sysctl_table -->
<g id="edge36" class="edge">
<title>register_net_sysctl&#45;&gt;__register_sysctl_table</title>
<path fill="none" stroke="black" d="M200,-503.85C200,-466.83 200,-379.18 200,-334.39"/>
<polygon fill="black" stroke="black" points="203.5,-334.23 200,-324.23 196.5,-334.23 203.5,-334.23"/>
</g>
<!-- register_net_sysctl&#45;&gt;ensure_safe_net_sysctl -->
<g id="edge28" class="edge">
<title>register_net_sysctl&#45;&gt;ensure_safe_net_sysctl</title>
<path fill="none" stroke="black" d="M236.25,-505.98C261.41,-495.56 295.16,-481.59 322.33,-470.33"/>
<polygon fill="black" stroke="black" points="323.74,-473.54 331.64,-466.48 321.06,-467.07 323.74,-473.54"/>
</g>
<!-- DEVINET_SYSCTL_ENTRY -->
<g id="node19" class="node">
<title>DEVINET_SYSCTL_ENTRY</title>
<ellipse fill="none" stroke="black" cx="1407" cy="-90" rx="119.68" ry="18"/>
<text text-anchor="middle" x="1407" y="-86.3" font-family="Times,serif" font-size="14.00">DEVINET_SYSCTL_ENTRY</text>
</g>
<!-- DEVINET_SYSCTL_ENTRY&#45;&gt;_ROOT_ -->
<g id="edge29" class="edge">
<title>DEVINET_SYSCTL_ENTRY&#45;&gt;_ROOT_</title>
<path fill="none" stroke="black" d="M1302.94,-81C1108.04,-66.03 694.47,-34.25 548.42,-23.03"/>
<polygon fill="black" stroke="black" points="548.61,-19.53 538.37,-22.26 548.08,-26.51 548.61,-19.53"/>
</g>
<!-- DEVINET_SYSCTL_RO_ENTRY -->
<g id="node20" class="node">
<title>DEVINET_SYSCTL_RO_ENTRY</title>
<ellipse fill="none" stroke="black" cx="1247" cy="-162" rx="135.68" ry="18"/>
<text text-anchor="middle" x="1247" y="-158.3" font-family="Times,serif" font-size="14.00">DEVINET_SYSCTL_RO_ENTRY</text>
</g>
<!-- DEVINET_SYSCTL_RO_ENTRY&#45;&gt;DEVINET_SYSCTL_ENTRY -->
<g id="edge30" class="edge">
<title>DEVINET_SYSCTL_RO_ENTRY&#45;&gt;DEVINET_SYSCTL_ENTRY</title>
<path fill="none" stroke="black" d="M1284.51,-144.59C1307.26,-134.63 1336.47,-121.86 1360.66,-111.27"/>
<polygon fill="black" stroke="black" points="1362.24,-114.4 1370,-107.19 1359.43,-107.99 1362.24,-114.4"/>
</g>
<!-- DEVINET_SYSCTL_COMPLEX_ENTRY -->
<g id="node21" class="node">
<title>DEVINET_SYSCTL_COMPLEX_ENTRY</title>
<ellipse fill="none" stroke="black" cx="1567" cy="-162" rx="166.27" ry="18"/>
<text text-anchor="middle" x="1567" y="-158.3" font-family="Times,serif" font-size="14.00">DEVINET_SYSCTL_COMPLEX_ENTRY</text>
</g>
<!-- DEVINET_SYSCTL_COMPLEX_ENTRY&#45;&gt;DEVINET_SYSCTL_ENTRY -->
<g id="edge31" class="edge">
<title>DEVINET_SYSCTL_COMPLEX_ENTRY&#45;&gt;DEVINET_SYSCTL_ENTRY</title>
<path fill="none" stroke="black" d="M1529.08,-144.41C1506.4,-134.49 1477.42,-121.81 1453.38,-111.29"/>
<polygon fill="black" stroke="black" points="1454.66,-108.03 1444.09,-107.23 1451.85,-114.44 1454.66,-108.03"/>
</g>
<!-- DEVINET_SYSCTL_RW_ENTRY -->
<g id="node22" class="node">
<title>DEVINET_SYSCTL_RW_ENTRY</title>
<ellipse fill="none" stroke="black" cx="1889" cy="-162" rx="137.58" ry="18"/>
<text text-anchor="middle" x="1889" y="-158.3" font-family="Times,serif" font-size="14.00">DEVINET_SYSCTL_RW_ENTRY</text>
</g>
<!-- DEVINET_SYSCTL_RW_ENTRY&#45;&gt;DEVINET_SYSCTL_ENTRY -->
<g id="edge32" class="edge">
<title>DEVINET_SYSCTL_RW_ENTRY&#45;&gt;DEVINET_SYSCTL_ENTRY</title>
<path fill="none" stroke="black" d="M1800.59,-148.16C1715.37,-135.78 1586.9,-117.13 1500.12,-104.52"/>
<polygon fill="black" stroke="black" points="1500.41,-101.03 1490.01,-103.06 1499.41,-107.96 1500.41,-101.03"/>
</g>
<!-- insert_header&#45;&gt;insert_links -->
<g id="edge34" class="edge">
<title>insert_header&#45;&gt;insert_links</title>
<path fill="none" stroke="black" d="M258.74,-215.7C259.07,-207.98 259.47,-198.71 259.84,-190.11"/>
<polygon fill="black" stroke="black" points="263.34,-190.25 260.27,-180.1 256.34,-189.95 263.34,-190.25"/>
</g>
<!-- DEVINET_SYSCTL_FLUSHING_ENTRY -->
<g id="node24" class="node">
<title>DEVINET_SYSCTL_FLUSHING_ENTRY</title>
<ellipse fill="none" stroke="black" cx="1567" cy="-234" rx="167.07" ry="18"/>
<text text-anchor="middle" x="1567" y="-230.3" font-family="Times,serif" font-size="14.00">DEVINET_SYSCTL_FLUSHING_ENTRY</text>
</g>
<!-- DEVINET_SYSCTL_FLUSHING_ENTRY&#45;&gt;DEVINET_SYSCTL_COMPLEX_ENTRY -->
<g id="edge37" class="edge">
<title>DEVINET_SYSCTL_FLUSHING_ENTRY&#45;&gt;DEVINET_SYSCTL_COMPLEX_ENTRY</title>
<path fill="none" stroke="black" d="M1567,-215.7C1567,-207.98 1567,-198.71 1567,-190.11"/>
<polygon fill="black" stroke="black" points="1570.5,-190.1 1567,-180.1 1563.5,-190.1 1570.5,-190.1"/>
</g>
</g>
</svg>
