<?xml version="1.0" encoding="UTF-8" standalone="no"?>
<!DOCTYPE svg PUBLIC "-//W3C//DTD SVG 1.1//EN"
 "http://www.w3.org/Graphics/SVG/1.1/DTD/svg11.dtd">
<!-- Generated by graphviz version 2.43.0 (0)
 -->
<!-- Title: /home/cendes/Documents/masters_thesis/ocloz/knob_graph_search/./ip_forward.dot Pages: 1 -->
<svg width="1210pt" height="404pt"
 viewBox="0.00 0.00 1210.43 404.00" xmlns="http://www.w3.org/2000/svg" xmlns:xlink="http://www.w3.org/1999/xlink">
<g id="graph0" class="graph" transform="scale(1 1) rotate(0) translate(4 400)">
<title>/home/cendes/Documents/masters_thesis/ocloz/knob_graph_search/./ip_forward.dot</title>
<polygon fill="white" stroke="transparent" points="-4,4 -4,-400 1206.43,-400 1206.43,4 -4,4"/>
<!-- __register_sysctl_table -->
<g id="node1" class="node">
<title>__register_sysctl_table</title>
<ellipse fill="none" stroke="black" cx="91.64" cy="-234" rx="91.78" ry="18"/>
<text text-anchor="middle" x="91.64" y="-230.3" font-family="Times,serif" font-size="14.00">__register_sysctl_table</text>
</g>
<!-- sysctl_check_table -->
<g id="node2" class="node">
<title>sysctl_check_table</title>
<ellipse fill="none" stroke="black" cx="91.64" cy="-162" rx="77.19" ry="18"/>
<text text-anchor="middle" x="91.64" y="-158.3" font-family="Times,serif" font-size="14.00">sysctl_check_table</text>
</g>
<!-- __register_sysctl_table&#45;&gt;sysctl_check_table -->
<g id="edge1" class="edge">
<title>__register_sysctl_table&#45;&gt;sysctl_check_table</title>
<path fill="none" stroke="black" d="M91.64,-215.7C91.64,-207.98 91.64,-198.71 91.64,-190.11"/>
<polygon fill="black" stroke="black" points="95.14,-190.1 91.64,-180.1 88.14,-190.1 95.14,-190.1"/>
</g>
<!-- __module_address -->
<g id="node3" class="node">
<title>__module_address</title>
<ellipse fill="none" stroke="black" cx="292.64" cy="-90" rx="77.19" ry="18"/>
<text text-anchor="middle" x="292.64" y="-86.3" font-family="Times,serif" font-size="14.00">__module_address</text>
</g>
<!-- mod_find -->
<g id="node4" class="node">
<title>mod_find</title>
<ellipse fill="none" stroke="black" cx="292.64" cy="-18" rx="45.49" ry="18"/>
<text text-anchor="middle" x="292.64" y="-14.3" font-family="Times,serif" font-size="14.00">mod_find</text>
</g>
<!-- __module_address&#45;&gt;mod_find -->
<g id="edge2" class="edge">
<title>__module_address&#45;&gt;mod_find</title>
<path fill="none" stroke="black" d="M292.64,-71.7C292.64,-63.98 292.64,-54.71 292.64,-46.11"/>
<polygon fill="black" stroke="black" points="296.14,-46.1 292.64,-36.1 289.14,-46.1 296.14,-46.1"/>
</g>
<!-- is_module_address -->
<g id="node5" class="node">
<title>is_module_address</title>
<ellipse fill="none" stroke="black" cx="292.64" cy="-162" rx="78.79" ry="18"/>
<text text-anchor="middle" x="292.64" y="-158.3" font-family="Times,serif" font-size="14.00">is_module_address</text>
</g>
<!-- is_module_address&#45;&gt;__module_address -->
<g id="edge3" class="edge">
<title>is_module_address&#45;&gt;__module_address</title>
<path fill="none" stroke="black" d="M292.64,-143.7C292.64,-135.98 292.64,-126.71 292.64,-118.11"/>
<polygon fill="black" stroke="black" points="296.14,-118.1 292.64,-108.1 289.14,-118.1 296.14,-118.1"/>
</g>
<!-- ensure_safe_net_sysctl -->
<g id="node6" class="node">
<title>ensure_safe_net_sysctl</title>
<ellipse fill="none" stroke="black" cx="292.64" cy="-234" rx="91.78" ry="18"/>
<text text-anchor="middle" x="292.64" y="-230.3" font-family="Times,serif" font-size="14.00">ensure_safe_net_sysctl</text>
</g>
<!-- ensure_safe_net_sysctl&#45;&gt;is_module_address -->
<g id="edge4" class="edge">
<title>ensure_safe_net_sysctl&#45;&gt;is_module_address</title>
<path fill="none" stroke="black" d="M292.64,-215.7C292.64,-207.98 292.64,-198.71 292.64,-190.11"/>
<polygon fill="black" stroke="black" points="296.14,-190.1 292.64,-180.1 289.14,-190.1 296.14,-190.1"/>
</g>
<!-- register_net_sysctl -->
<g id="node7" class="node">
<title>register_net_sysctl</title>
<ellipse fill="none" stroke="black" cx="191.64" cy="-306" rx="76.89" ry="18"/>
<text text-anchor="middle" x="191.64" y="-302.3" font-family="Times,serif" font-size="14.00">register_net_sysctl</text>
</g>
<!-- register_net_sysctl&#45;&gt;__register_sysctl_table -->
<g id="edge10" class="edge">
<title>register_net_sysctl&#45;&gt;__register_sysctl_table</title>
<path fill="none" stroke="black" d="M168.45,-288.76C155.14,-279.45 138.23,-267.61 123.66,-257.41"/>
<polygon fill="black" stroke="black" points="125.6,-254.5 115.4,-251.63 121.59,-260.24 125.6,-254.5"/>
</g>
<!-- register_net_sysctl&#45;&gt;ensure_safe_net_sysctl -->
<g id="edge5" class="edge">
<title>register_net_sysctl&#45;&gt;ensure_safe_net_sysctl</title>
<path fill="none" stroke="black" d="M215.07,-288.76C228.51,-279.45 245.59,-267.61 260.3,-257.41"/>
<polygon fill="black" stroke="black" points="262.42,-260.21 268.64,-251.63 258.43,-254.45 262.42,-260.21"/>
</g>
<!-- DEVINET_SYSCTL_RO_ENTRY -->
<g id="node8" class="node">
<title>DEVINET_SYSCTL_RO_ENTRY</title>
<ellipse fill="none" stroke="black" cx="422.64" cy="-306" rx="135.68" ry="18"/>
<text text-anchor="middle" x="422.64" y="-302.3" font-family="Times,serif" font-size="14.00">DEVINET_SYSCTL_RO_ENTRY</text>
</g>
<!-- DEVINET_SYSCTL_ENTRY -->
<g id="node9" class="node">
<title>DEVINET_SYSCTL_ENTRY</title>
<ellipse fill="none" stroke="black" cx="742.64" cy="-234" rx="119.68" ry="18"/>
<text text-anchor="middle" x="742.64" y="-230.3" font-family="Times,serif" font-size="14.00">DEVINET_SYSCTL_ENTRY</text>
</g>
<!-- DEVINET_SYSCTL_RO_ENTRY&#45;&gt;DEVINET_SYSCTL_ENTRY -->
<g id="edge6" class="edge">
<title>DEVINET_SYSCTL_RO_ENTRY&#45;&gt;DEVINET_SYSCTL_ENTRY</title>
<path fill="none" stroke="black" d="M489.72,-290.33C541.83,-278.93 614.05,-263.13 667.99,-251.33"/>
<polygon fill="black" stroke="black" points="668.81,-254.73 677.83,-249.18 667.32,-247.89 668.81,-254.73"/>
</g>
<!-- DEVINET_SYSCTL_COMPLEX_ENTRY -->
<g id="node10" class="node">
<title>DEVINET_SYSCTL_COMPLEX_ENTRY</title>
<ellipse fill="none" stroke="black" cx="742.64" cy="-306" rx="166.27" ry="18"/>
<text text-anchor="middle" x="742.64" y="-302.3" font-family="Times,serif" font-size="14.00">DEVINET_SYSCTL_COMPLEX_ENTRY</text>
</g>
<!-- DEVINET_SYSCTL_COMPLEX_ENTRY&#45;&gt;DEVINET_SYSCTL_ENTRY -->
<g id="edge7" class="edge">
<title>DEVINET_SYSCTL_COMPLEX_ENTRY&#45;&gt;DEVINET_SYSCTL_ENTRY</title>
<path fill="none" stroke="black" d="M742.64,-287.7C742.64,-279.98 742.64,-270.71 742.64,-262.11"/>
<polygon fill="black" stroke="black" points="746.14,-262.1 742.64,-252.1 739.14,-262.1 746.14,-262.1"/>
</g>
<!-- DEVINET_SYSCTL_RW_ENTRY -->
<g id="node11" class="node">
<title>DEVINET_SYSCTL_RW_ENTRY</title>
<ellipse fill="none" stroke="black" cx="1064.64" cy="-306" rx="137.58" ry="18"/>
<text text-anchor="middle" x="1064.64" y="-302.3" font-family="Times,serif" font-size="14.00">DEVINET_SYSCTL_RW_ENTRY</text>
</g>
<!-- DEVINET_SYSCTL_RW_ENTRY&#45;&gt;DEVINET_SYSCTL_ENTRY -->
<g id="edge8" class="edge">
<title>DEVINET_SYSCTL_RW_ENTRY&#45;&gt;DEVINET_SYSCTL_ENTRY</title>
<path fill="none" stroke="black" d="M996.75,-290.24C944.29,-278.84 871.74,-263.06 817.58,-251.29"/>
<polygon fill="black" stroke="black" points="818.21,-247.85 807.7,-249.14 816.72,-254.69 818.21,-247.85"/>
</g>
<!-- devinet_init_net -->
<g id="node12" class="node">
<title>devinet_init_net</title>
<ellipse fill="none" stroke="black" cx="191.64" cy="-378" rx="67.69" ry="18"/>
<text text-anchor="middle" x="191.64" y="-374.3" font-family="Times,serif" font-size="14.00">devinet_init_net</text>
</g>
<!-- devinet_init_net&#45;&gt;register_net_sysctl -->
<g id="edge9" class="edge">
<title>devinet_init_net&#45;&gt;register_net_sysctl</title>
<path fill="none" stroke="black" d="M191.64,-359.7C191.64,-351.98 191.64,-342.71 191.64,-334.11"/>
<polygon fill="black" stroke="black" points="195.14,-334.1 191.64,-324.1 188.14,-334.1 195.14,-334.1"/>
</g>
<!-- DEVINET_SYSCTL_FLUSHING_ENTRY -->
<g id="node13" class="node">
<title>DEVINET_SYSCTL_FLUSHING_ENTRY</title>
<ellipse fill="none" stroke="black" cx="742.64" cy="-378" rx="167.07" ry="18"/>
<text text-anchor="middle" x="742.64" y="-374.3" font-family="Times,serif" font-size="14.00">DEVINET_SYSCTL_FLUSHING_ENTRY</text>
</g>
<!-- DEVINET_SYSCTL_FLUSHING_ENTRY&#45;&gt;DEVINET_SYSCTL_COMPLEX_ENTRY -->
<g id="edge11" class="edge">
<title>DEVINET_SYSCTL_FLUSHING_ENTRY&#45;&gt;DEVINET_SYSCTL_COMPLEX_ENTRY</title>
<path fill="none" stroke="black" d="M742.64,-359.7C742.64,-351.98 742.64,-342.71 742.64,-334.11"/>
<polygon fill="black" stroke="black" points="746.14,-334.1 742.64,-324.1 739.14,-334.1 746.14,-334.1"/>
</g>
</g>
</svg>
