<?xml version="1.0" encoding="UTF-8" standalone="no"?>
<!DOCTYPE svg PUBLIC "-//W3C//DTD SVG 1.1//EN"
 "http://www.w3.org/Graphics/SVG/1.1/DTD/svg11.dtd">
<!-- Generated by graphviz version 2.43.0 (0)
 -->
<!-- Title: /home/cendes/Documents/masters_thesis/ocloz/knob_graph_search/./ip_forward.dot Pages: 1 -->
<svg width="1920pt" height="620pt"
 viewBox="0.00 0.00 1920.38 620.00" xmlns="http://www.w3.org/2000/svg" xmlns:xlink="http://www.w3.org/1999/xlink">
<g id="graph0" class="graph" transform="scale(1 1) rotate(0) translate(4 616)">
<title>/home/cendes/Documents/masters_thesis/ocloz/knob_graph_search/./ip_forward.dot</title>
<polygon fill="white" stroke="transparent" points="-4,4 -4,-616 1916.38,-616 1916.38,4 -4,4"/>
<!-- devinet_init_net -->
<g id="node1" class="node">
<title>devinet_init_net</title>
<ellipse fill="none" stroke="black" cx="67.59" cy="-594" rx="67.69" ry="18"/>
<text text-anchor="middle" x="67.59" y="-590.3" font-family="Times,serif" font-size="14.00">devinet_init_net</text>
</g>
<!-- _ROOT_ -->
<g id="node2" class="node">
<title>_ROOT_</title>
<ellipse fill="none" stroke="black" cx="400.59" cy="-18" rx="43.59" ry="18"/>
<text text-anchor="middle" x="400.59" y="-14.3" font-family="Times,serif" font-size="14.00">_ROOT_</text>
</g>
<!-- devinet_init_net&#45;&gt;_ROOT_ -->
<g id="edge1" class="edge">
<title>devinet_init_net&#45;&gt;_ROOT_</title>
<path fill="none" stroke="black" d="M55.16,-576.05C37.59,-550.37 7.59,-499.44 7.59,-451 7.59,-451 7.59,-451 7.59,-161 7.59,-89.04 243.62,-43.33 349.85,-26.4"/>
<polygon fill="black" stroke="black" points="350.68,-29.82 360.02,-24.81 349.59,-22.9 350.68,-29.82"/>
</g>
<!-- register_net_sysctl -->
<g id="node16" class="node">
<title>register_net_sysctl</title>
<ellipse fill="none" stroke="black" cx="127.59" cy="-522" rx="76.89" ry="18"/>
<text text-anchor="middle" x="127.59" y="-518.3" font-family="Times,serif" font-size="14.00">register_net_sysctl</text>
</g>
<!-- devinet_init_net&#45;&gt;register_net_sysctl -->
<g id="edge31" class="edge">
<title>devinet_init_net&#45;&gt;register_net_sysctl</title>
<path fill="none" stroke="black" d="M82.12,-576.05C89.49,-567.46 98.57,-556.86 106.68,-547.4"/>
<polygon fill="black" stroke="black" points="109.35,-549.66 113.2,-539.79 104.04,-545.1 109.35,-549.66"/>
</g>
<!-- sysctl_check_table -->
<g id="node3" class="node">
<title>sysctl_check_table</title>
<ellipse fill="none" stroke="black" cx="124.59" cy="-306" rx="77.19" ry="18"/>
<text text-anchor="middle" x="124.59" y="-302.3" font-family="Times,serif" font-size="14.00">sysctl_check_table</text>
</g>
<!-- sysctl_check_table&#45;&gt;_ROOT_ -->
<g id="edge2" class="edge">
<title>sysctl_check_table&#45;&gt;_ROOT_</title>
<path fill="none" stroke="black" d="M126.19,-287.77C131.11,-244.74 149.94,-131.8 215.59,-72 251.57,-39.23 306.5,-26.59 347.16,-21.79"/>
<polygon fill="black" stroke="black" points="347.6,-25.26 357.18,-20.73 346.86,-18.3 347.6,-25.26"/>
</g>
<!-- __register_sysctl_table -->
<g id="node4" class="node">
<title>__register_sysctl_table</title>
<ellipse fill="none" stroke="black" cx="127.59" cy="-450" rx="91.78" ry="18"/>
<text text-anchor="middle" x="127.59" y="-446.3" font-family="Times,serif" font-size="14.00">__register_sysctl_table</text>
</g>
<!-- __register_sysctl_table&#45;&gt;sysctl_check_table -->
<g id="edge3" class="edge">
<title>__register_sysctl_table&#45;&gt;sysctl_check_table</title>
<path fill="none" stroke="black" d="M127.23,-431.87C126.72,-407.67 125.78,-363.21 125.17,-334.39"/>
<polygon fill="black" stroke="black" points="128.67,-334.11 124.96,-324.19 121.67,-334.26 128.67,-334.11"/>
</g>
<!-- core_kernel_data -->
<g id="node5" class="node">
<title>core_kernel_data</title>
<ellipse fill="none" stroke="black" cx="328.59" cy="-378" rx="71.49" ry="18"/>
<text text-anchor="middle" x="328.59" y="-374.3" font-family="Times,serif" font-size="14.00">core_kernel_data</text>
</g>
<!-- core_kernel_data&#45;&gt;_ROOT_ -->
<g id="edge4" class="edge">
<title>core_kernel_data&#45;&gt;_ROOT_</title>
<path fill="none" stroke="black" d="M314.65,-360.26C306.92,-350.27 297.67,-337.02 291.59,-324 274.28,-286.87 267.59,-275.97 267.59,-235 267.59,-235 267.59,-235 267.59,-161 267.59,-120.03 265.49,-103.58 291.59,-72 307.71,-52.5 332.73,-39.63 354.73,-31.46"/>
<polygon fill="black" stroke="black" points="355.97,-34.73 364.26,-28.14 353.67,-28.12 355.97,-34.73"/>
</g>
<!-- ensure_safe_net_sysctl -->
<g id="node6" class="node">
<title>ensure_safe_net_sysctl</title>
<ellipse fill="none" stroke="black" cx="328.59" cy="-450" rx="91.78" ry="18"/>
<text text-anchor="middle" x="328.59" y="-446.3" font-family="Times,serif" font-size="14.00">ensure_safe_net_sysctl</text>
</g>
<!-- ensure_safe_net_sysctl&#45;&gt;_ROOT_ -->
<g id="edge25" class="edge">
<title>ensure_safe_net_sysctl&#45;&gt;_ROOT_</title>
<path fill="none" stroke="black" d="M293.16,-433.34C277.22,-424.56 259.57,-412.11 248.59,-396 225.82,-362.57 229.59,-347.45 229.59,-307 229.59,-307 229.59,-307 229.59,-161 229.59,-117.99 236.81,-102.04 267.59,-72 290.49,-49.66 323.97,-36.38 351.62,-28.71"/>
<polygon fill="black" stroke="black" points="352.72,-32.04 361.51,-26.13 350.95,-25.27 352.72,-32.04"/>
</g>
<!-- ensure_safe_net_sysctl&#45;&gt;core_kernel_data -->
<g id="edge5" class="edge">
<title>ensure_safe_net_sysctl&#45;&gt;core_kernel_data</title>
<path fill="none" stroke="black" d="M328.59,-431.7C328.59,-423.98 328.59,-414.71 328.59,-406.11"/>
<polygon fill="black" stroke="black" points="332.09,-406.1 328.59,-396.1 325.09,-406.1 332.09,-406.1"/>
</g>
<!-- is_module_address -->
<g id="node15" class="node">
<title>is_module_address</title>
<ellipse fill="none" stroke="black" cx="496.59" cy="-378" rx="78.79" ry="18"/>
<text text-anchor="middle" x="496.59" y="-374.3" font-family="Times,serif" font-size="14.00">is_module_address</text>
</g>
<!-- ensure_safe_net_sysctl&#45;&gt;is_module_address -->
<g id="edge24" class="edge">
<title>ensure_safe_net_sysctl&#45;&gt;is_module_address</title>
<path fill="none" stroke="black" d="M365.88,-433.46C391.02,-422.99 424.34,-409.1 451.05,-397.98"/>
<polygon fill="black" stroke="black" points="452.68,-401.09 460.57,-394.01 449.99,-394.63 452.68,-401.09"/>
</g>
<!-- BUG_ON -->
<g id="node7" class="node">
<title>BUG_ON</title>
<ellipse fill="none" stroke="black" cx="427.59" cy="-234" rx="46.29" ry="18"/>
<text text-anchor="middle" x="427.59" y="-230.3" font-family="Times,serif" font-size="14.00">BUG_ON</text>
</g>
<!-- BUG_ON&#45;&gt;_ROOT_ -->
<g id="edge6" class="edge">
<title>BUG_ON&#45;&gt;_ROOT_</title>
<path fill="none" stroke="black" d="M425.43,-215.85C420.76,-178.83 409.7,-91.18 404.05,-46.39"/>
<polygon fill="black" stroke="black" points="407.49,-45.72 402.77,-36.23 400.55,-46.59 407.49,-45.72"/>
</g>
<!-- __module_address -->
<g id="node8" class="node">
<title>__module_address</title>
<ellipse fill="none" stroke="black" cx="496.59" cy="-306" rx="77.19" ry="18"/>
<text text-anchor="middle" x="496.59" y="-302.3" font-family="Times,serif" font-size="14.00">__module_address</text>
</g>
<!-- __module_address&#45;&gt;_ROOT_ -->
<g id="edge21" class="edge">
<title>__module_address&#45;&gt;_ROOT_</title>
<path fill="none" stroke="black" d="M437.06,-294.43C412.81,-286.88 387.1,-273.98 372.59,-252 330.04,-187.53 365.87,-90.76 387.33,-44.89"/>
<polygon fill="black" stroke="black" points="390.59,-46.18 391.78,-35.65 384.29,-43.14 390.59,-46.18"/>
</g>
<!-- __module_address&#45;&gt;BUG_ON -->
<g id="edge7" class="edge">
<title>__module_address&#45;&gt;BUG_ON</title>
<path fill="none" stroke="black" d="M479.89,-288.05C471.2,-279.24 460.45,-268.33 450.95,-258.69"/>
<polygon fill="black" stroke="black" points="453.18,-255.97 443.67,-251.31 448.2,-260.89 453.18,-255.97"/>
</g>
<!-- within_module -->
<g id="node10" class="node">
<title>within_module</title>
<ellipse fill="none" stroke="black" cx="528.59" cy="-162" rx="64.19" ry="18"/>
<text text-anchor="middle" x="528.59" y="-158.3" font-family="Times,serif" font-size="14.00">within_module</text>
</g>
<!-- __module_address&#45;&gt;within_module -->
<g id="edge13" class="edge">
<title>__module_address&#45;&gt;within_module</title>
<path fill="none" stroke="black" d="M500.45,-287.87C505.93,-263.56 516.02,-218.82 522.51,-190.01"/>
<polygon fill="black" stroke="black" points="525.94,-190.71 524.72,-180.19 519.11,-189.18 525.94,-190.71"/>
</g>
<!-- mod_find -->
<g id="node12" class="node">
<title>mod_find</title>
<ellipse fill="none" stroke="black" cx="712.59" cy="-234" rx="45.49" ry="18"/>
<text text-anchor="middle" x="712.59" y="-230.3" font-family="Times,serif" font-size="14.00">mod_find</text>
</g>
<!-- __module_address&#45;&gt;mod_find -->
<g id="edge20" class="edge">
<title>__module_address&#45;&gt;mod_find</title>
<path fill="none" stroke="black" d="M539.79,-291C577.19,-278.88 631.06,-261.42 668.68,-249.23"/>
<polygon fill="black" stroke="black" points="669.92,-252.51 678.35,-246.1 667.76,-245.85 669.92,-252.51"/>
</g>
<!-- within_module_init -->
<g id="node9" class="node">
<title>within_module_init</title>
<ellipse fill="none" stroke="black" cx="528.59" cy="-90" rx="80.69" ry="18"/>
<text text-anchor="middle" x="528.59" y="-86.3" font-family="Times,serif" font-size="14.00">within_module_init</text>
</g>
<!-- within_module_init&#45;&gt;_ROOT_ -->
<g id="edge8" class="edge">
<title>within_module_init&#45;&gt;_ROOT_</title>
<path fill="none" stroke="black" d="M499.55,-73.12C480.36,-62.62 455.12,-48.82 434.94,-37.78"/>
<polygon fill="black" stroke="black" points="436.51,-34.65 426.06,-32.93 433.15,-40.8 436.51,-34.65"/>
</g>
<!-- within_module&#45;&gt;_ROOT_ -->
<g id="edge12" class="edge">
<title>within_module&#45;&gt;_ROOT_</title>
<path fill="none" stroke="black" d="M493.33,-146.73C475.02,-137.85 453.44,-124.89 438.59,-108 422.97,-90.22 413.03,-65.05 407.25,-46.01"/>
<polygon fill="black" stroke="black" points="410.55,-44.82 404.46,-36.15 403.82,-46.73 410.55,-44.82"/>
</g>
<!-- within_module&#45;&gt;within_module_init -->
<g id="edge9" class="edge">
<title>within_module&#45;&gt;within_module_init</title>
<path fill="none" stroke="black" d="M528.59,-143.7C528.59,-135.98 528.59,-126.71 528.59,-118.11"/>
<polygon fill="black" stroke="black" points="532.09,-118.1 528.59,-108.1 525.09,-118.1 532.09,-118.1"/>
</g>
<!-- within_module_core -->
<g id="node11" class="node">
<title>within_module_core</title>
<ellipse fill="none" stroke="black" cx="710.59" cy="-90" rx="83.69" ry="18"/>
<text text-anchor="middle" x="710.59" y="-86.3" font-family="Times,serif" font-size="14.00">within_module_core</text>
</g>
<!-- within_module&#45;&gt;within_module_core -->
<g id="edge11" class="edge">
<title>within_module&#45;&gt;within_module_core</title>
<path fill="none" stroke="black" d="M564.99,-147C592.79,-136.31 631.38,-121.47 661.85,-109.75"/>
<polygon fill="black" stroke="black" points="663.35,-112.92 671.43,-106.06 660.84,-106.39 663.35,-112.92"/>
</g>
<!-- within_module_core&#45;&gt;_ROOT_ -->
<g id="edge10" class="edge">
<title>within_module_core&#45;&gt;_ROOT_</title>
<path fill="none" stroke="black" d="M655.17,-76.49C596.15,-63.16 503.72,-42.29 447.97,-29.7"/>
<polygon fill="black" stroke="black" points="448.53,-26.24 438.01,-27.45 446.99,-33.06 448.53,-26.24"/>
</g>
<!-- mod_find&#45;&gt;_ROOT_ -->
<g id="edge19" class="edge">
<title>mod_find&#45;&gt;_ROOT_</title>
<path fill="none" stroke="black" d="M732.96,-217.72C770.85,-187.49 844.77,-118.95 803.59,-72 780.85,-46.07 557.74,-28.83 453.61,-22.13"/>
<polygon fill="black" stroke="black" points="453.52,-18.62 443.32,-21.48 453.08,-25.61 453.52,-18.62"/>
</g>
<!-- mod_find&#45;&gt;within_module -->
<g id="edge14" class="edge">
<title>mod_find&#45;&gt;within_module</title>
<path fill="none" stroke="black" d="M680.96,-220.97C651.69,-209.83 607.82,-193.14 574.66,-180.53"/>
<polygon fill="black" stroke="black" points="575.77,-177.2 565.18,-176.92 573.28,-183.75 575.77,-177.2"/>
</g>
<!-- latch_tree_find -->
<g id="node14" class="node">
<title>latch_tree_find</title>
<ellipse fill="none" stroke="black" cx="914.59" cy="-162" rx="63.89" ry="18"/>
<text text-anchor="middle" x="914.59" y="-158.3" font-family="Times,serif" font-size="14.00">latch_tree_find</text>
</g>
<!-- mod_find&#45;&gt;latch_tree_find -->
<g id="edge18" class="edge">
<title>mod_find&#45;&gt;latch_tree_find</title>
<path fill="none" stroke="black" d="M745.95,-221.44C778.76,-210.07 829.21,-192.59 866.38,-179.71"/>
<polygon fill="black" stroke="black" points="867.71,-182.95 876.01,-176.37 865.41,-176.34 867.71,-182.95"/>
</g>
<!-- __lt_find -->
<g id="node13" class="node">
<title>__lt_find</title>
<ellipse fill="none" stroke="black" cx="931.59" cy="-90" rx="42.79" ry="18"/>
<text text-anchor="middle" x="931.59" y="-86.3" font-family="Times,serif" font-size="14.00">__lt_find</text>
</g>
<!-- __lt_find&#45;&gt;_ROOT_ -->
<g id="edge15" class="edge">
<title>__lt_find&#45;&gt;_ROOT_</title>
<path fill="none" stroke="black" d="M898.99,-78.19C891.08,-75.87 882.59,-73.63 874.59,-72 723.56,-41.29 541.58,-27.22 453.49,-21.83"/>
<polygon fill="black" stroke="black" points="453.67,-18.33 443.48,-21.23 453.25,-25.32 453.67,-18.33"/>
</g>
<!-- latch_tree_find&#45;&gt;_ROOT_ -->
<g id="edge17" class="edge">
<title>latch_tree_find&#45;&gt;_ROOT_</title>
<path fill="none" stroke="black" d="M905,-143.87C892.31,-123.01 867.84,-88.51 836.59,-72 771.33,-37.52 555.42,-24.88 454.04,-20.77"/>
<polygon fill="black" stroke="black" points="454.15,-17.27 444.02,-20.37 453.87,-24.26 454.15,-17.27"/>
</g>
<!-- latch_tree_find&#45;&gt;__lt_find -->
<g id="edge16" class="edge">
<title>latch_tree_find&#45;&gt;__lt_find</title>
<path fill="none" stroke="black" d="M918.8,-143.7C920.69,-135.9 922.97,-126.51 925.08,-117.83"/>
<polygon fill="black" stroke="black" points="928.48,-118.65 927.44,-108.1 921.68,-117 928.48,-118.65"/>
</g>
<!-- is_module_address&#45;&gt;_ROOT_ -->
<g id="edge23" class="edge">
<title>is_module_address&#45;&gt;_ROOT_</title>
<path fill="none" stroke="black" d="M447.41,-363.8C390.81,-345.28 305.59,-305.66 305.59,-235 305.59,-235 305.59,-235 305.59,-161 305.59,-111.66 345.71,-66.48 373.81,-40.89"/>
<polygon fill="black" stroke="black" points="376.2,-43.45 381.37,-34.2 371.56,-38.2 376.2,-43.45"/>
</g>
<!-- is_module_address&#45;&gt;__module_address -->
<g id="edge22" class="edge">
<title>is_module_address&#45;&gt;__module_address</title>
<path fill="none" stroke="black" d="M496.59,-359.7C496.59,-351.98 496.59,-342.71 496.59,-334.11"/>
<polygon fill="black" stroke="black" points="500.09,-334.1 496.59,-324.1 493.09,-334.1 500.09,-334.1"/>
</g>
<!-- register_net_sysctl&#45;&gt;__register_sysctl_table -->
<g id="edge32" class="edge">
<title>register_net_sysctl&#45;&gt;__register_sysctl_table</title>
<path fill="none" stroke="black" d="M127.59,-503.7C127.59,-495.98 127.59,-486.71 127.59,-478.11"/>
<polygon fill="black" stroke="black" points="131.09,-478.1 127.59,-468.1 124.09,-478.1 131.09,-478.1"/>
</g>
<!-- register_net_sysctl&#45;&gt;ensure_safe_net_sysctl -->
<g id="edge26" class="edge">
<title>register_net_sysctl&#45;&gt;ensure_safe_net_sysctl</title>
<path fill="none" stroke="black" d="M168.75,-506.67C199.8,-495.85 242.62,-480.94 276.12,-469.27"/>
<polygon fill="black" stroke="black" points="277.46,-472.51 285.75,-465.92 275.16,-465.9 277.46,-472.51"/>
</g>
<!-- DEVINET_SYSCTL_ENTRY -->
<g id="node17" class="node">
<title>DEVINET_SYSCTL_ENTRY</title>
<ellipse fill="none" stroke="black" cx="1292.59" cy="-90" rx="119.68" ry="18"/>
<text text-anchor="middle" x="1292.59" y="-86.3" font-family="Times,serif" font-size="14.00">DEVINET_SYSCTL_ENTRY</text>
</g>
<!-- DEVINET_SYSCTL_ENTRY&#45;&gt;_ROOT_ -->
<g id="edge27" class="edge">
<title>DEVINET_SYSCTL_ENTRY&#45;&gt;_ROOT_</title>
<path fill="none" stroke="black" d="M1189.4,-80.9C998.58,-65.93 596.95,-34.41 453.18,-23.13"/>
<polygon fill="black" stroke="black" points="453.12,-19.61 442.88,-22.32 452.57,-26.59 453.12,-19.61"/>
</g>
<!-- DEVINET_SYSCTL_RO_ENTRY -->
<g id="node18" class="node">
<title>DEVINET_SYSCTL_RO_ENTRY</title>
<ellipse fill="none" stroke="black" cx="1132.59" cy="-162" rx="135.68" ry="18"/>
<text text-anchor="middle" x="1132.59" y="-158.3" font-family="Times,serif" font-size="14.00">DEVINET_SYSCTL_RO_ENTRY</text>
</g>
<!-- DEVINET_SYSCTL_RO_ENTRY&#45;&gt;DEVINET_SYSCTL_ENTRY -->
<g id="edge28" class="edge">
<title>DEVINET_SYSCTL_RO_ENTRY&#45;&gt;DEVINET_SYSCTL_ENTRY</title>
<path fill="none" stroke="black" d="M1170.11,-144.59C1192.86,-134.63 1222.06,-121.86 1246.25,-111.27"/>
<polygon fill="black" stroke="black" points="1247.83,-114.4 1255.59,-107.19 1245.03,-107.99 1247.83,-114.4"/>
</g>
<!-- DEVINET_SYSCTL_COMPLEX_ENTRY -->
<g id="node19" class="node">
<title>DEVINET_SYSCTL_COMPLEX_ENTRY</title>
<ellipse fill="none" stroke="black" cx="1452.59" cy="-162" rx="166.27" ry="18"/>
<text text-anchor="middle" x="1452.59" y="-158.3" font-family="Times,serif" font-size="14.00">DEVINET_SYSCTL_COMPLEX_ENTRY</text>
</g>
<!-- DEVINET_SYSCTL_COMPLEX_ENTRY&#45;&gt;DEVINET_SYSCTL_ENTRY -->
<g id="edge29" class="edge">
<title>DEVINET_SYSCTL_COMPLEX_ENTRY&#45;&gt;DEVINET_SYSCTL_ENTRY</title>
<path fill="none" stroke="black" d="M1414.68,-144.41C1392,-134.49 1363.01,-121.81 1338.97,-111.29"/>
<polygon fill="black" stroke="black" points="1340.25,-108.03 1329.69,-107.23 1337.45,-114.44 1340.25,-108.03"/>
</g>
<!-- DEVINET_SYSCTL_RW_ENTRY -->
<g id="node20" class="node">
<title>DEVINET_SYSCTL_RW_ENTRY</title>
<ellipse fill="none" stroke="black" cx="1774.59" cy="-162" rx="137.58" ry="18"/>
<text text-anchor="middle" x="1774.59" y="-158.3" font-family="Times,serif" font-size="14.00">DEVINET_SYSCTL_RW_ENTRY</text>
</g>
<!-- DEVINET_SYSCTL_RW_ENTRY&#45;&gt;DEVINET_SYSCTL_ENTRY -->
<g id="edge30" class="edge">
<title>DEVINET_SYSCTL_RW_ENTRY&#45;&gt;DEVINET_SYSCTL_ENTRY</title>
<path fill="none" stroke="black" d="M1686.19,-148.16C1600.96,-135.78 1472.49,-117.13 1385.71,-104.52"/>
<polygon fill="black" stroke="black" points="1386.01,-101.03 1375.61,-103.06 1385,-107.96 1386.01,-101.03"/>
</g>
<!-- DEVINET_SYSCTL_FLUSHING_ENTRY -->
<g id="node21" class="node">
<title>DEVINET_SYSCTL_FLUSHING_ENTRY</title>
<ellipse fill="none" stroke="black" cx="1452.59" cy="-234" rx="167.07" ry="18"/>
<text text-anchor="middle" x="1452.59" y="-230.3" font-family="Times,serif" font-size="14.00">DEVINET_SYSCTL_FLUSHING_ENTRY</text>
</g>
<!-- DEVINET_SYSCTL_FLUSHING_ENTRY&#45;&gt;DEVINET_SYSCTL_COMPLEX_ENTRY -->
<g id="edge33" class="edge">
<title>DEVINET_SYSCTL_FLUSHING_ENTRY&#45;&gt;DEVINET_SYSCTL_COMPLEX_ENTRY</title>
<path fill="none" stroke="black" d="M1452.59,-215.7C1452.59,-207.98 1452.59,-198.71 1452.59,-190.11"/>
<polygon fill="black" stroke="black" points="1456.09,-190.1 1452.59,-180.1 1449.09,-190.1 1456.09,-190.1"/>
</g>
</g>
</svg>
