<?xml version="1.0" encoding="UTF-8" standalone="no"?>
<!DOCTYPE svg PUBLIC "-//W3C//DTD SVG 1.1//EN"
 "http://www.w3.org/Graphics/SVG/1.1/DTD/svg11.dtd">
<!-- Generated by graphviz version 2.43.0 (0)
 -->
<!-- Title: /home/cendes/Documents/masters_thesis/ocloz/knob_graph_search/./numa_balancing.dot Pages: 1 -->
<svg width="808pt" height="620pt"
 viewBox="0.00 0.00 808.13 620.00" xmlns="http://www.w3.org/2000/svg" xmlns:xlink="http://www.w3.org/1999/xlink">
<g id="graph0" class="graph" transform="scale(1 1) rotate(0) translate(4 616)">
<title>/home/cendes/Documents/masters_thesis/ocloz/knob_graph_search/./numa_balancing.dot</title>
<polygon fill="white" stroke="transparent" points="-4,4 -4,-616 804.13,-616 804.13,4 -4,4"/>
<!-- set_numabalancing_state -->
<g id="node1" class="node">
<title>set_numabalancing_state</title>
<ellipse fill="none" stroke="black" cx="99.44" cy="-450" rx="99.38" ry="18"/>
<text text-anchor="middle" x="99.44" y="-446.3" font-family="Times,serif" font-size="14.00">set_numabalancing_state</text>
</g>
<!-- _ROOT_ -->
<g id="node2" class="node">
<title>_ROOT_</title>
<ellipse fill="none" stroke="black" cx="359.44" cy="-18" rx="43.59" ry="18"/>
<text text-anchor="middle" x="359.44" y="-14.3" font-family="Times,serif" font-size="14.00">_ROOT_</text>
</g>
<!-- set_numabalancing_state&#45;&gt;_ROOT_ -->
<g id="edge1" class="edge">
<title>set_numabalancing_state&#45;&gt;_ROOT_</title>
<path fill="none" stroke="black" d="M108.55,-432.06C121.7,-405.98 144.44,-354.07 144.44,-307 144.44,-307 144.44,-307 144.44,-161 144.44,-81.81 247.25,-44.24 310.69,-28.59"/>
<polygon fill="black" stroke="black" points="311.58,-31.98 320.51,-26.27 309.97,-25.17 311.58,-31.98"/>
</g>
<!-- sysctl_numa_balancing -->
<g id="node3" class="node">
<title>sysctl_numa_balancing</title>
<ellipse fill="none" stroke="black" cx="226.44" cy="-594" rx="93.68" ry="18"/>
<text text-anchor="middle" x="226.44" y="-590.3" font-family="Times,serif" font-size="14.00">sysctl_numa_balancing</text>
</g>
<!-- sysctl_numa_balancing&#45;&gt;set_numabalancing_state -->
<g id="edge2" class="edge">
<title>sysctl_numa_balancing&#45;&gt;set_numabalancing_state</title>
<path fill="none" stroke="black" d="M211.37,-576.15C189.03,-551.17 147,-504.17 121.28,-475.42"/>
<polygon fill="black" stroke="black" points="123.76,-472.95 114.49,-467.82 118.55,-477.61 123.76,-472.95"/>
</g>
<!-- sysctl_numa_balancing&#45;&gt;_ROOT_ -->
<g id="edge20" class="edge">
<title>sysctl_numa_balancing&#45;&gt;_ROOT_</title>
<path fill="none" stroke="black" d="M226.44,-575.95C226.44,-549.29 226.44,-496.11 226.44,-451 226.44,-451 226.44,-451 226.44,-161 226.44,-104.09 284.06,-60.58 323.44,-37.48"/>
<polygon fill="black" stroke="black" points="325.56,-40.31 332.53,-32.33 322.1,-34.22 325.56,-40.31"/>
</g>
<!-- proc_dointvec_minmax -->
<g id="node5" class="node">
<title>proc_dointvec_minmax</title>
<ellipse fill="none" stroke="black" cx="349.44" cy="-522" rx="94.78" ry="18"/>
<text text-anchor="middle" x="349.44" y="-518.3" font-family="Times,serif" font-size="14.00">proc_dointvec_minmax</text>
</g>
<!-- sysctl_numa_balancing&#45;&gt;proc_dointvec_minmax -->
<g id="edge21" class="edge">
<title>sysctl_numa_balancing&#45;&gt;proc_dointvec_minmax</title>
<path fill="none" stroke="black" d="M254.97,-576.76C271.85,-567.16 293.43,-554.88 311.7,-544.48"/>
<polygon fill="black" stroke="black" points="313.68,-547.38 320.64,-539.39 310.22,-541.29 313.68,-547.38"/>
</g>
<!-- do_proc_dointvec -->
<g id="node4" class="node">
<title>do_proc_dointvec</title>
<ellipse fill="none" stroke="black" cx="349.44" cy="-450" rx="74.19" ry="18"/>
<text text-anchor="middle" x="349.44" y="-446.3" font-family="Times,serif" font-size="14.00">do_proc_dointvec</text>
</g>
<!-- do_proc_dointvec&#45;&gt;_ROOT_ -->
<g id="edge3" class="edge">
<title>do_proc_dointvec&#45;&gt;_ROOT_</title>
<path fill="none" stroke="black" d="M321.85,-433.18C308.28,-424.02 292.85,-411.26 283.44,-396 262.22,-361.57 264.44,-347.45 264.44,-307 264.44,-307 264.44,-307 264.44,-161 264.44,-111.66 304.56,-66.48 332.65,-40.89"/>
<polygon fill="black" stroke="black" points="335.04,-43.45 340.22,-34.2 330.41,-38.2 335.04,-43.45"/>
</g>
<!-- __do_proc_dointvec -->
<g id="node12" class="node">
<title>__do_proc_dointvec</title>
<ellipse fill="none" stroke="black" cx="375.44" cy="-378" rx="83.39" ry="18"/>
<text text-anchor="middle" x="375.44" y="-374.3" font-family="Times,serif" font-size="14.00">__do_proc_dointvec</text>
</g>
<!-- do_proc_dointvec&#45;&gt;__do_proc_dointvec -->
<g id="edge19" class="edge">
<title>do_proc_dointvec&#45;&gt;__do_proc_dointvec</title>
<path fill="none" stroke="black" d="M355.74,-432.05C358.66,-424.18 362.21,-414.62 365.49,-405.79"/>
<polygon fill="black" stroke="black" points="368.82,-406.87 369.02,-396.28 362.26,-404.43 368.82,-406.87"/>
</g>
<!-- proc_dointvec_minmax&#45;&gt;do_proc_dointvec -->
<g id="edge4" class="edge">
<title>proc_dointvec_minmax&#45;&gt;do_proc_dointvec</title>
<path fill="none" stroke="black" d="M349.44,-503.7C349.44,-495.98 349.44,-486.71 349.44,-478.11"/>
<polygon fill="black" stroke="black" points="352.94,-478.1 349.44,-468.1 345.94,-478.1 352.94,-478.1"/>
</g>
<!-- __read_once_size -->
<g id="node6" class="node">
<title>__read_once_size</title>
<ellipse fill="none" stroke="black" cx="517.44" cy="-90" rx="73.39" ry="18"/>
<text text-anchor="middle" x="517.44" y="-86.3" font-family="Times,serif" font-size="14.00">__read_once_size</text>
</g>
<!-- __read_once_size&#45;&gt;_ROOT_ -->
<g id="edge5" class="edge">
<title>__read_once_size&#45;&gt;_ROOT_</title>
<path fill="none" stroke="black" d="M483.55,-73.98C458.19,-62.75 423.51,-47.38 397.25,-35.75"/>
<polygon fill="black" stroke="black" points="398.55,-32.5 387.99,-31.65 395.72,-38.9 398.55,-32.5"/>
</g>
<!-- READ_ONCE -->
<g id="node7" class="node">
<title>READ_ONCE</title>
<ellipse fill="none" stroke="black" cx="469.44" cy="-162" rx="63.09" ry="18"/>
<text text-anchor="middle" x="469.44" y="-158.3" font-family="Times,serif" font-size="14.00">READ_ONCE</text>
</g>
<!-- READ_ONCE&#45;&gt;_ROOT_ -->
<g id="edge7" class="edge">
<title>READ_ONCE&#45;&gt;_ROOT_</title>
<path fill="none" stroke="black" d="M456.39,-144.15C437.02,-119.15 400.55,-72.07 378.28,-43.32"/>
<polygon fill="black" stroke="black" points="381.03,-41.15 372.14,-35.39 375.49,-45.44 381.03,-41.15"/>
</g>
<!-- READ_ONCE&#45;&gt;__read_once_size -->
<g id="edge6" class="edge">
<title>READ_ONCE&#45;&gt;__read_once_size</title>
<path fill="none" stroke="black" d="M481.06,-144.05C486.78,-135.71 493.79,-125.49 500.13,-116.25"/>
<polygon fill="black" stroke="black" points="503.16,-118.02 505.93,-107.79 497.39,-114.06 503.16,-118.02"/>
</g>
<!-- do_proc_dointvec_conv -->
<g id="node8" class="node">
<title>do_proc_dointvec_conv</title>
<ellipse fill="none" stroke="black" cx="466.44" cy="-234" rx="95.58" ry="18"/>
<text text-anchor="middle" x="466.44" y="-230.3" font-family="Times,serif" font-size="14.00">do_proc_dointvec_conv</text>
</g>
<!-- do_proc_dointvec_conv&#45;&gt;_ROOT_ -->
<g id="edge14" class="edge">
<title>do_proc_dointvec_conv&#45;&gt;_ROOT_</title>
<path fill="none" stroke="black" d="M436.69,-216.68C422.79,-207.61 407.2,-195.1 397.44,-180 370.71,-138.65 362.74,-80.47 360.39,-46.56"/>
<polygon fill="black" stroke="black" points="363.88,-46.23 359.81,-36.45 356.89,-46.63 363.88,-46.23"/>
</g>
<!-- do_proc_dointvec_conv&#45;&gt;READ_ONCE -->
<g id="edge8" class="edge">
<title>do_proc_dointvec_conv&#45;&gt;READ_ONCE</title>
<path fill="none" stroke="black" d="M467.18,-215.7C467.51,-207.98 467.91,-198.71 468.28,-190.11"/>
<polygon fill="black" stroke="black" points="471.78,-190.25 468.71,-180.1 464.78,-189.95 471.78,-190.25"/>
</g>
<!-- WRITE_ONCE -->
<g id="node10" class="node">
<title>WRITE_ONCE</title>
<ellipse fill="none" stroke="black" cx="618.44" cy="-162" rx="67.69" ry="18"/>
<text text-anchor="middle" x="618.44" y="-158.3" font-family="Times,serif" font-size="14.00">WRITE_ONCE</text>
</g>
<!-- do_proc_dointvec_conv&#45;&gt;WRITE_ONCE -->
<g id="edge13" class="edge">
<title>do_proc_dointvec_conv&#45;&gt;WRITE_ONCE</title>
<path fill="none" stroke="black" d="M500.93,-217.12C523.51,-206.72 553.14,-193.07 577,-182.08"/>
<polygon fill="black" stroke="black" points="578.55,-185.23 586.17,-177.86 575.62,-178.87 578.55,-185.23"/>
</g>
<!-- __write_once_size -->
<g id="node9" class="node">
<title>__write_once_size</title>
<ellipse fill="none" stroke="black" cx="723.44" cy="-90" rx="76.89" ry="18"/>
<text text-anchor="middle" x="723.44" y="-86.3" font-family="Times,serif" font-size="14.00">__write_once_size</text>
</g>
<!-- __write_once_size&#45;&gt;_ROOT_ -->
<g id="edge9" class="edge">
<title>__write_once_size&#45;&gt;_ROOT_</title>
<path fill="none" stroke="black" d="M666.17,-77.99C594.94,-64.29 474.62,-41.15 407.81,-28.3"/>
<polygon fill="black" stroke="black" points="408.44,-24.86 397.96,-26.41 407.12,-31.73 408.44,-24.86"/>
</g>
<!-- WRITE_ONCE&#45;&gt;_ROOT_ -->
<g id="edge11" class="edge">
<title>WRITE_ONCE&#45;&gt;_ROOT_</title>
<path fill="none" stroke="black" d="M619.87,-143.71C620.51,-123.66 618.26,-90.95 599.44,-72 573.56,-45.94 473.94,-30.96 411.47,-23.94"/>
<polygon fill="black" stroke="black" points="411.72,-20.45 401.4,-22.85 410.96,-27.41 411.72,-20.45"/>
</g>
<!-- WRITE_ONCE&#45;&gt;__write_once_size -->
<g id="edge10" class="edge">
<title>WRITE_ONCE&#45;&gt;__write_once_size</title>
<path fill="none" stroke="black" d="M642.27,-145.12C656.56,-135.59 674.95,-123.33 690.61,-112.89"/>
<polygon fill="black" stroke="black" points="692.6,-115.77 698.98,-107.31 688.72,-109.94 692.6,-115.77"/>
</g>
<!-- do_proc_dointvec_minmax_conv -->
<g id="node11" class="node">
<title>do_proc_dointvec_minmax_conv</title>
<ellipse fill="none" stroke="black" cx="462.44" cy="-306" rx="129.98" ry="18"/>
<text text-anchor="middle" x="462.44" y="-302.3" font-family="Times,serif" font-size="14.00">do_proc_dointvec_minmax_conv</text>
</g>
<!-- do_proc_dointvec_minmax_conv&#45;&gt;_ROOT_ -->
<g id="edge16" class="edge">
<title>do_proc_dointvec_minmax_conv&#45;&gt;_ROOT_</title>
<path fill="none" stroke="black" d="M409.1,-289.54C390.8,-281.43 372.23,-269.43 361.44,-252 321.45,-187.38 339.08,-92.12 351.29,-46"/>
<polygon fill="black" stroke="black" points="354.72,-46.72 354.02,-36.15 347.98,-44.85 354.72,-46.72"/>
</g>
<!-- do_proc_dointvec_minmax_conv&#45;&gt;do_proc_dointvec_conv -->
<g id="edge15" class="edge">
<title>do_proc_dointvec_minmax_conv&#45;&gt;do_proc_dointvec_conv</title>
<path fill="none" stroke="black" d="M463.43,-287.7C463.87,-279.98 464.4,-270.71 464.89,-262.11"/>
<polygon fill="black" stroke="black" points="468.39,-262.29 465.46,-252.1 461.4,-261.89 468.39,-262.29"/>
</g>
<!-- do_proc_dointvec_minmax_conv&#45;&gt;WRITE_ONCE -->
<g id="edge12" class="edge">
<title>do_proc_dointvec_minmax_conv&#45;&gt;WRITE_ONCE</title>
<path fill="none" stroke="black" d="M510.75,-289.22C531.32,-280.69 554.43,-268.46 571.44,-252 589.41,-234.62 601.97,-208.87 609.56,-189.53"/>
<polygon fill="black" stroke="black" points="612.87,-190.68 613.08,-180.08 606.31,-188.24 612.87,-190.68"/>
</g>
<!-- __do_proc_dointvec&#45;&gt;_ROOT_ -->
<g id="edge18" class="edge">
<title>__do_proc_dointvec&#45;&gt;_ROOT_</title>
<path fill="none" stroke="black" d="M354.38,-360.42C343.6,-350.87 331.16,-338 323.44,-324 303.82,-288.41 302.44,-275.64 302.44,-235 302.44,-235 302.44,-235 302.44,-161 302.44,-117.56 325.7,-71.68 342.5,-44.2"/>
<polygon fill="black" stroke="black" points="345.54,-45.94 347.91,-35.62 339.61,-42.21 345.54,-45.94"/>
</g>
<!-- __do_proc_dointvec&#45;&gt;do_proc_dointvec_minmax_conv -->
<g id="edge17" class="edge">
<title>__do_proc_dointvec&#45;&gt;do_proc_dointvec_minmax_conv</title>
<path fill="none" stroke="black" d="M396.06,-360.41C407.16,-351.48 421.05,-340.3 433.25,-330.49"/>
<polygon fill="black" stroke="black" points="435.77,-332.95 441.37,-323.96 431.38,-327.5 435.77,-332.95"/>
</g>
</g>
</svg>
