<?xml version="1.0" encoding="UTF-8" standalone="no"?>
<!DOCTYPE svg PUBLIC "-//W3C//DTD SVG 1.1//EN"
 "http://www.w3.org/Graphics/SVG/1.1/DTD/svg11.dtd">
<!-- Generated by graphviz version 2.43.0 (0)
 -->
<!-- Title: partial_graph.dot Pages: 1 -->
<svg width="588pt" height="548pt"
 viewBox="0.00 0.00 588.04 548.00" xmlns="http://www.w3.org/2000/svg" xmlns:xlink="http://www.w3.org/1999/xlink">
<g id="graph0" class="graph" transform="scale(1 1) rotate(0) translate(4 544)">
<title>partial_graph.dot</title>
<polygon fill="white" stroke="transparent" points="-4,4 -4,-544 584.04,-544 584.04,4 -4,4"/>
<!-- register_net_sysctl -->
<g id="node1" class="node">
<title>register_net_sysctl</title>
<ellipse fill="none" stroke="black" cx="272.69" cy="-450" rx="76.89" ry="18"/>
<text text-anchor="middle" x="272.69" y="-446.3" font-family="Times,serif" font-size="14.00">register_net_sysctl</text>
</g>
<!-- ensure_safe_net_sysctl -->
<g id="node2" class="node">
<title>ensure_safe_net_sysctl</title>
<ellipse fill="none" stroke="black" cx="172.69" cy="-378" rx="91.78" ry="18"/>
<text text-anchor="middle" x="172.69" y="-374.3" font-family="Times,serif" font-size="14.00">ensure_safe_net_sysctl</text>
</g>
<!-- register_net_sysctl&#45;&gt;ensure_safe_net_sysctl -->
<g id="edge1" class="edge">
<title>register_net_sysctl&#45;&gt;ensure_safe_net_sysctl</title>
<path fill="none" stroke="black" d="M249.5,-432.76C236.19,-423.45 219.28,-411.61 204.71,-401.41"/>
<polygon fill="black" stroke="black" points="206.66,-398.5 196.46,-395.63 202.64,-404.24 206.66,-398.5"/>
</g>
<!-- __register_sysctl_table -->
<g id="node15" class="node">
<title>__register_sysctl_table</title>
<ellipse fill="none" stroke="black" cx="373.69" cy="-378" rx="91.78" ry="18"/>
<text text-anchor="middle" x="373.69" y="-374.3" font-family="Times,serif" font-size="14.00">__register_sysctl_table</text>
</g>
<!-- register_net_sysctl&#45;&gt;__register_sysctl_table -->
<g id="edge15" class="edge">
<title>register_net_sysctl&#45;&gt;__register_sysctl_table</title>
<path fill="none" stroke="black" d="M296.12,-432.76C309.56,-423.45 326.64,-411.61 341.35,-401.41"/>
<polygon fill="black" stroke="black" points="343.47,-404.21 349.69,-395.63 339.48,-398.45 343.47,-404.21"/>
</g>
<!-- is_module_address -->
<g id="node3" class="node">
<title>is_module_address</title>
<ellipse fill="none" stroke="black" cx="172.69" cy="-306" rx="78.79" ry="18"/>
<text text-anchor="middle" x="172.69" y="-302.3" font-family="Times,serif" font-size="14.00">is_module_address</text>
</g>
<!-- ensure_safe_net_sysctl&#45;&gt;is_module_address -->
<g id="edge2" class="edge">
<title>ensure_safe_net_sysctl&#45;&gt;is_module_address</title>
<path fill="none" stroke="black" d="M172.69,-359.7C172.69,-351.98 172.69,-342.71 172.69,-334.11"/>
<polygon fill="black" stroke="black" points="176.19,-334.1 172.69,-324.1 169.19,-334.1 176.19,-334.1"/>
</g>
<!-- __module_address -->
<g id="node4" class="node">
<title>__module_address</title>
<ellipse fill="none" stroke="black" cx="172.69" cy="-234" rx="77.19" ry="18"/>
<text text-anchor="middle" x="172.69" y="-230.3" font-family="Times,serif" font-size="14.00">__module_address</text>
</g>
<!-- is_module_address&#45;&gt;__module_address -->
<g id="edge3" class="edge">
<title>is_module_address&#45;&gt;__module_address</title>
<path fill="none" stroke="black" d="M172.69,-287.7C172.69,-279.98 172.69,-270.71 172.69,-262.11"/>
<polygon fill="black" stroke="black" points="176.19,-262.1 172.69,-252.1 169.19,-262.1 176.19,-262.1"/>
</g>
<!-- mod_find -->
<g id="node7" class="node">
<title>mod_find</title>
<ellipse fill="none" stroke="black" cx="136.69" cy="-162" rx="45.49" ry="18"/>
<text text-anchor="middle" x="136.69" y="-158.3" font-family="Times,serif" font-size="14.00">mod_find</text>
</g>
<!-- __module_address&#45;&gt;mod_find -->
<g id="edge6" class="edge">
<title>__module_address&#45;&gt;mod_find</title>
<path fill="none" stroke="black" d="M163.98,-216.05C159.78,-207.89 154.65,-197.91 149.98,-188.82"/>
<polygon fill="black" stroke="black" points="153.01,-187.08 145.33,-179.79 146.79,-190.28 153.01,-187.08"/>
</g>
<!-- within_module -->
<g id="node8" class="node">
<title>within_module</title>
<ellipse fill="none" stroke="black" cx="209.69" cy="-90" rx="64.19" ry="18"/>
<text text-anchor="middle" x="209.69" y="-86.3" font-family="Times,serif" font-size="14.00">within_module</text>
</g>
<!-- __module_address&#45;&gt;within_module -->
<g id="edge8" class="edge">
<title>__module_address&#45;&gt;within_module</title>
<path fill="none" stroke="black" d="M179.04,-215.97C182.75,-205.66 187.34,-192.18 190.69,-180 196.32,-159.57 201.27,-136.11 204.71,-118.4"/>
<polygon fill="black" stroke="black" points="208.22,-118.68 206.64,-108.21 201.34,-117.38 208.22,-118.68"/>
</g>
<!-- latch_tree_find -->
<g id="node5" class="node">
<title>latch_tree_find</title>
<ellipse fill="none" stroke="black" cx="63.69" cy="-90" rx="63.89" ry="18"/>
<text text-anchor="middle" x="63.69" y="-86.3" font-family="Times,serif" font-size="14.00">latch_tree_find</text>
</g>
<!-- __lt_find -->
<g id="node6" class="node">
<title>__lt_find</title>
<ellipse fill="none" stroke="black" cx="63.69" cy="-18" rx="42.79" ry="18"/>
<text text-anchor="middle" x="63.69" y="-14.3" font-family="Times,serif" font-size="14.00">__lt_find</text>
</g>
<!-- latch_tree_find&#45;&gt;__lt_find -->
<g id="edge4" class="edge">
<title>latch_tree_find&#45;&gt;__lt_find</title>
<path fill="none" stroke="black" d="M63.69,-71.7C63.69,-63.98 63.69,-54.71 63.69,-46.11"/>
<polygon fill="black" stroke="black" points="67.19,-46.1 63.69,-36.1 60.19,-46.1 67.19,-46.1"/>
</g>
<!-- mod_find&#45;&gt;latch_tree_find -->
<g id="edge5" class="edge">
<title>mod_find&#45;&gt;latch_tree_find</title>
<path fill="none" stroke="black" d="M120.13,-145.12C110.72,-136.09 98.76,-124.62 88.27,-114.57"/>
<polygon fill="black" stroke="black" points="90.6,-111.95 80.96,-107.55 85.75,-117 90.6,-111.95"/>
</g>
<!-- mod_find&#45;&gt;within_module -->
<g id="edge9" class="edge">
<title>mod_find&#45;&gt;within_module</title>
<path fill="none" stroke="black" d="M153.26,-145.12C162.67,-136.09 174.63,-124.62 185.12,-114.57"/>
<polygon fill="black" stroke="black" points="187.64,-117 192.43,-107.55 182.79,-111.95 187.64,-117"/>
</g>
<!-- within_module_core -->
<g id="node9" class="node">
<title>within_module_core</title>
<ellipse fill="none" stroke="black" cx="208.69" cy="-18" rx="83.69" ry="18"/>
<text text-anchor="middle" x="208.69" y="-14.3" font-family="Times,serif" font-size="14.00">within_module_core</text>
</g>
<!-- within_module&#45;&gt;within_module_core -->
<g id="edge7" class="edge">
<title>within_module&#45;&gt;within_module_core</title>
<path fill="none" stroke="black" d="M209.45,-71.7C209.34,-63.98 209.2,-54.71 209.08,-46.11"/>
<polygon fill="black" stroke="black" points="212.58,-46.05 208.94,-36.1 205.58,-46.15 212.58,-46.05"/>
</g>
<!-- within_module_init -->
<g id="node10" class="node">
<title>within_module_init</title>
<ellipse fill="none" stroke="black" cx="390.69" cy="-18" rx="80.69" ry="18"/>
<text text-anchor="middle" x="390.69" y="-14.3" font-family="Times,serif" font-size="14.00">within_module_init</text>
</g>
<!-- within_module&#45;&gt;within_module_init -->
<g id="edge10" class="edge">
<title>within_module&#45;&gt;within_module_init</title>
<path fill="none" stroke="black" d="M245.89,-75C273.63,-64.27 312.17,-49.37 342.52,-37.63"/>
<polygon fill="black" stroke="black" points="344,-40.81 352.06,-33.94 341.47,-34.28 344,-40.81"/>
</g>
<!-- devinet_init_net -->
<g id="node11" class="node">
<title>devinet_init_net</title>
<ellipse fill="none" stroke="black" cx="272.69" cy="-522" rx="67.69" ry="18"/>
<text text-anchor="middle" x="272.69" y="-518.3" font-family="Times,serif" font-size="14.00">devinet_init_net</text>
</g>
<!-- devinet_init_net&#45;&gt;register_net_sysctl -->
<g id="edge11" class="edge">
<title>devinet_init_net&#45;&gt;register_net_sysctl</title>
<path fill="none" stroke="black" d="M272.69,-503.7C272.69,-495.98 272.69,-486.71 272.69,-478.11"/>
<polygon fill="black" stroke="black" points="276.19,-478.1 272.69,-468.1 269.19,-478.1 276.19,-478.1"/>
</g>
<!-- insert_links -->
<g id="node12" class="node">
<title>insert_links</title>
<ellipse fill="none" stroke="black" cx="349.69" cy="-234" rx="51.99" ry="18"/>
<text text-anchor="middle" x="349.69" y="-230.3" font-family="Times,serif" font-size="14.00">insert_links</text>
</g>
<!-- new_links -->
<g id="node13" class="node">
<title>new_links</title>
<ellipse fill="none" stroke="black" cx="349.69" cy="-162" rx="46.59" ry="18"/>
<text text-anchor="middle" x="349.69" y="-158.3" font-family="Times,serif" font-size="14.00">new_links</text>
</g>
<!-- insert_links&#45;&gt;new_links -->
<g id="edge12" class="edge">
<title>insert_links&#45;&gt;new_links</title>
<path fill="none" stroke="black" d="M349.69,-215.7C349.69,-207.98 349.69,-198.71 349.69,-190.11"/>
<polygon fill="black" stroke="black" points="353.19,-190.1 349.69,-180.1 346.19,-190.1 353.19,-190.1"/>
</g>
<!-- insert_header -->
<g id="node14" class="node">
<title>insert_header</title>
<ellipse fill="none" stroke="black" cx="349.69" cy="-306" rx="57.69" ry="18"/>
<text text-anchor="middle" x="349.69" y="-302.3" font-family="Times,serif" font-size="14.00">insert_header</text>
</g>
<!-- insert_header&#45;&gt;insert_links -->
<g id="edge13" class="edge">
<title>insert_header&#45;&gt;insert_links</title>
<path fill="none" stroke="black" d="M349.69,-287.7C349.69,-279.98 349.69,-270.71 349.69,-262.11"/>
<polygon fill="black" stroke="black" points="353.19,-262.1 349.69,-252.1 346.19,-262.1 353.19,-262.1"/>
</g>
<!-- __register_sysctl_table&#45;&gt;insert_header -->
<g id="edge14" class="edge">
<title>__register_sysctl_table&#45;&gt;insert_header</title>
<path fill="none" stroke="black" d="M367.76,-359.7C365.09,-351.9 361.87,-342.51 358.89,-333.83"/>
<polygon fill="black" stroke="black" points="362.11,-332.43 355.56,-324.1 355.49,-334.7 362.11,-332.43"/>
</g>
<!-- sysctl_check_table -->
<g id="node16" class="node">
<title>sysctl_check_table</title>
<ellipse fill="none" stroke="black" cx="502.69" cy="-306" rx="77.19" ry="18"/>
<text text-anchor="middle" x="502.69" y="-302.3" font-family="Times,serif" font-size="14.00">sysctl_check_table</text>
</g>
<!-- __register_sysctl_table&#45;&gt;sysctl_check_table -->
<g id="edge16" class="edge">
<title>__register_sysctl_table&#45;&gt;sysctl_check_table</title>
<path fill="none" stroke="black" d="M403.29,-360.94C421.53,-351.04 445.09,-338.26 464.7,-327.62"/>
<polygon fill="black" stroke="black" points="466.56,-330.59 473.68,-322.74 463.22,-324.44 466.56,-330.59"/>
</g>
</g>
</svg>
