<?xml version="1.0" encoding="UTF-8" standalone="no"?>
<!DOCTYPE svg PUBLIC "-//W3C//DTD SVG 1.1//EN"
 "http://www.w3.org/Graphics/SVG/1.1/DTD/svg11.dtd">
<!-- Generated by graphviz version 2.43.0 (0)
 -->
<!-- Title: /home/cendes/Documents/masters_thesis/ocloz/knob_graph_search/./tcp_abort_on_overflow.dot Pages: 1 -->
<svg width="869pt" height="836pt"
 viewBox="0.00 0.00 869.44 836.00" xmlns="http://www.w3.org/2000/svg" xmlns:xlink="http://www.w3.org/1999/xlink">
<g id="graph0" class="graph" transform="scale(1 1) rotate(0) translate(4 832)">
<title>/home/cendes/Documents/masters_thesis/ocloz/knob_graph_search/./tcp_abort_on_overflow.dot</title>
<polygon fill="white" stroke="transparent" points="-4,4 -4,-832 865.44,-832 865.44,4 -4,4"/>
<!-- __nla_put -->
<g id="node1" class="node">
<title>__nla_put</title>
<ellipse fill="none" stroke="black" cx="487.19" cy="-162" rx="46.29" ry="18"/>
<text text-anchor="middle" x="487.19" y="-158.3" font-family="Times,serif" font-size="14.00">__nla_put</text>
</g>
<!-- _ROOT_ -->
<g id="node2" class="node">
<title>_ROOT_</title>
<ellipse fill="none" stroke="black" cx="487.19" cy="-18" rx="43.59" ry="18"/>
<text text-anchor="middle" x="487.19" y="-14.3" font-family="Times,serif" font-size="14.00">_ROOT_</text>
</g>
<!-- __nla_put&#45;&gt;_ROOT_ -->
<g id="edge1" class="edge">
<title>__nla_put&#45;&gt;_ROOT_</title>
<path fill="none" stroke="black" d="M481.11,-144.07C477.74,-133.79 473.9,-120.31 472.19,-108 469.99,-92.15 469.99,-87.85 472.19,-72 473.41,-63.25 475.7,-53.9 478.14,-45.54"/>
<polygon fill="black" stroke="black" points="481.5,-46.52 481.11,-35.93 474.81,-44.45 481.5,-46.52"/>
</g>
<!-- nla_data -->
<g id="node4" class="node">
<title>nla_data</title>
<ellipse fill="none" stroke="black" cx="521.19" cy="-90" rx="40.09" ry="18"/>
<text text-anchor="middle" x="521.19" y="-86.3" font-family="Times,serif" font-size="14.00">nla_data</text>
</g>
<!-- __nla_put&#45;&gt;nla_data -->
<g id="edge4" class="edge">
<title>__nla_put&#45;&gt;nla_data</title>
<path fill="none" stroke="black" d="M495.42,-144.05C499.39,-135.89 504.24,-125.91 508.65,-116.82"/>
<polygon fill="black" stroke="black" points="511.82,-118.31 513.04,-107.79 505.52,-115.25 511.82,-118.31"/>
</g>
<!-- nla_put -->
<g id="node3" class="node">
<title>nla_put</title>
<ellipse fill="none" stroke="black" cx="487.19" cy="-234" rx="37.09" ry="18"/>
<text text-anchor="middle" x="487.19" y="-230.3" font-family="Times,serif" font-size="14.00">nla_put</text>
</g>
<!-- nla_put&#45;&gt;__nla_put -->
<g id="edge2" class="edge">
<title>nla_put&#45;&gt;__nla_put</title>
<path fill="none" stroke="black" d="M487.19,-215.7C487.19,-207.98 487.19,-198.71 487.19,-190.11"/>
<polygon fill="black" stroke="black" points="490.69,-190.1 487.19,-180.1 483.69,-190.1 490.69,-190.1"/>
</g>
<!-- nla_data&#45;&gt;_ROOT_ -->
<g id="edge3" class="edge">
<title>nla_data&#45;&gt;_ROOT_</title>
<path fill="none" stroke="black" d="M512.96,-72.05C509,-63.89 504.15,-53.91 499.74,-44.82"/>
<polygon fill="black" stroke="black" points="502.87,-43.25 495.35,-35.79 496.57,-46.31 502.87,-43.25"/>
</g>
<!-- nla_put_u8 -->
<g id="node5" class="node">
<title>nla_put_u8</title>
<ellipse fill="none" stroke="black" cx="487.19" cy="-306" rx="50.09" ry="18"/>
<text text-anchor="middle" x="487.19" y="-302.3" font-family="Times,serif" font-size="14.00">nla_put_u8</text>
</g>
<!-- nla_put_u8&#45;&gt;nla_put -->
<g id="edge5" class="edge">
<title>nla_put_u8&#45;&gt;nla_put</title>
<path fill="none" stroke="black" d="M487.19,-287.7C487.19,-279.98 487.19,-270.71 487.19,-262.11"/>
<polygon fill="black" stroke="black" points="490.69,-262.1 487.19,-252.1 483.69,-262.1 490.69,-262.1"/>
</g>
<!-- tcp_get_timestamping_opt_stats -->
<g id="node6" class="node">
<title>tcp_get_timestamping_opt_stats</title>
<ellipse fill="none" stroke="black" cx="487.19" cy="-378" rx="125.38" ry="18"/>
<text text-anchor="middle" x="487.19" y="-374.3" font-family="Times,serif" font-size="14.00">tcp_get_timestamping_opt_stats</text>
</g>
<!-- tcp_get_timestamping_opt_stats&#45;&gt;nla_put_u8 -->
<g id="edge6" class="edge">
<title>tcp_get_timestamping_opt_stats&#45;&gt;nla_put_u8</title>
<path fill="none" stroke="black" d="M487.19,-359.7C487.19,-351.98 487.19,-342.71 487.19,-334.11"/>
<polygon fill="black" stroke="black" points="490.69,-334.1 487.19,-324.1 483.69,-334.1 490.69,-334.1"/>
</g>
<!-- __skb_tstamp_tx -->
<g id="node7" class="node">
<title>__skb_tstamp_tx</title>
<ellipse fill="none" stroke="black" cx="487.19" cy="-450" rx="71.49" ry="18"/>
<text text-anchor="middle" x="487.19" y="-446.3" font-family="Times,serif" font-size="14.00">__skb_tstamp_tx</text>
</g>
<!-- __skb_tstamp_tx&#45;&gt;tcp_get_timestamping_opt_stats -->
<g id="edge7" class="edge">
<title>__skb_tstamp_tx&#45;&gt;tcp_get_timestamping_opt_stats</title>
<path fill="none" stroke="black" d="M487.19,-431.7C487.19,-423.98 487.19,-414.71 487.19,-406.11"/>
<polygon fill="black" stroke="black" points="490.69,-406.1 487.19,-396.1 483.69,-406.1 490.69,-406.1"/>
</g>
<!-- __dev_queue_xmit -->
<g id="node8" class="node">
<title>__dev_queue_xmit</title>
<ellipse fill="none" stroke="black" cx="487.19" cy="-522" rx="78.79" ry="18"/>
<text text-anchor="middle" x="487.19" y="-518.3" font-family="Times,serif" font-size="14.00">__dev_queue_xmit</text>
</g>
<!-- __dev_queue_xmit&#45;&gt;__skb_tstamp_tx -->
<g id="edge8" class="edge">
<title>__dev_queue_xmit&#45;&gt;__skb_tstamp_tx</title>
<path fill="none" stroke="black" d="M487.19,-503.7C487.19,-495.98 487.19,-486.71 487.19,-478.11"/>
<polygon fill="black" stroke="black" points="490.69,-478.1 487.19,-468.1 483.69,-478.1 490.69,-478.1"/>
</g>
<!-- dev_queue_xmit -->
<g id="node9" class="node">
<title>dev_queue_xmit</title>
<ellipse fill="none" stroke="black" cx="487.19" cy="-594" rx="69.59" ry="18"/>
<text text-anchor="middle" x="487.19" y="-590.3" font-family="Times,serif" font-size="14.00">dev_queue_xmit</text>
</g>
<!-- dev_queue_xmit&#45;&gt;__dev_queue_xmit -->
<g id="edge9" class="edge">
<title>dev_queue_xmit&#45;&gt;__dev_queue_xmit</title>
<path fill="none" stroke="black" d="M487.19,-575.7C487.19,-567.98 487.19,-558.71 487.19,-550.11"/>
<polygon fill="black" stroke="black" points="490.69,-550.1 487.19,-540.1 483.69,-550.1 490.69,-550.1"/>
</g>
<!-- pn_send -->
<g id="node10" class="node">
<title>pn_send</title>
<ellipse fill="none" stroke="black" cx="487.19" cy="-666" rx="40.09" ry="18"/>
<text text-anchor="middle" x="487.19" y="-662.3" font-family="Times,serif" font-size="14.00">pn_send</text>
</g>
<!-- pn_send&#45;&gt;dev_queue_xmit -->
<g id="edge10" class="edge">
<title>pn_send&#45;&gt;dev_queue_xmit</title>
<path fill="none" stroke="black" d="M487.19,-647.7C487.19,-639.98 487.19,-630.71 487.19,-622.11"/>
<polygon fill="black" stroke="black" points="490.69,-622.1 487.19,-612.1 483.69,-622.1 490.69,-622.1"/>
</g>
<!-- pn_skb_send -->
<g id="node11" class="node">
<title>pn_skb_send</title>
<ellipse fill="none" stroke="black" cx="487.19" cy="-738" rx="56.59" ry="18"/>
<text text-anchor="middle" x="487.19" y="-734.3" font-family="Times,serif" font-size="14.00">pn_skb_send</text>
</g>
<!-- pn_skb_send&#45;&gt;pn_send -->
<g id="edge11" class="edge">
<title>pn_skb_send&#45;&gt;pn_send</title>
<path fill="none" stroke="black" d="M487.19,-719.7C487.19,-711.98 487.19,-702.71 487.19,-694.11"/>
<polygon fill="black" stroke="black" points="490.69,-694.1 487.19,-684.1 483.69,-694.1 490.69,-694.1"/>
</g>
<!-- pipe_do_remove -->
<g id="node12" class="node">
<title>pipe_do_remove</title>
<ellipse fill="none" stroke="black" cx="70.19" cy="-810" rx="70.39" ry="18"/>
<text text-anchor="middle" x="70.19" y="-806.3" font-family="Times,serif" font-size="14.00">pipe_do_remove</text>
</g>
<!-- pipe_do_remove&#45;&gt;pn_skb_send -->
<g id="edge12" class="edge">
<title>pipe_do_remove&#45;&gt;pn_skb_send</title>
<path fill="none" stroke="black" d="M121.1,-797.6C130.43,-795.64 140.09,-793.69 149.19,-792 245.71,-774.06 358.47,-757.2 426.28,-747.49"/>
<polygon fill="black" stroke="black" points="426.96,-750.93 436.36,-746.06 425.97,-744 426.96,-750.93"/>
</g>
<!-- pep_ctrlreq_error -->
<g id="node13" class="node">
<title>pep_ctrlreq_error</title>
<ellipse fill="none" stroke="black" cx="230.19" cy="-810" rx="72.29" ry="18"/>
<text text-anchor="middle" x="230.19" y="-806.3" font-family="Times,serif" font-size="14.00">pep_ctrlreq_error</text>
</g>
<!-- pep_ctrlreq_error&#45;&gt;pn_skb_send -->
<g id="edge13" class="edge">
<title>pep_ctrlreq_error&#45;&gt;pn_skb_send</title>
<path fill="none" stroke="black" d="M277.03,-796.24C321.95,-784.01 389.59,-765.58 435.93,-752.96"/>
<polygon fill="black" stroke="black" points="437.04,-756.29 445.77,-750.28 435.2,-749.53 437.04,-756.29"/>
</g>
<!-- pipe_handler_request -->
<g id="node14" class="node">
<title>pipe_handler_request</title>
<ellipse fill="none" stroke="black" cx="407.19" cy="-810" rx="86.38" ry="18"/>
<text text-anchor="middle" x="407.19" y="-806.3" font-family="Times,serif" font-size="14.00">pipe_handler_request</text>
</g>
<!-- pipe_handler_request&#45;&gt;pn_skb_send -->
<g id="edge14" class="edge">
<title>pipe_handler_request&#45;&gt;pn_skb_send</title>
<path fill="none" stroke="black" d="M426.15,-792.41C436.59,-783.28 449.7,-771.81 461.09,-761.84"/>
<polygon fill="black" stroke="black" points="463.43,-764.45 468.65,-755.23 458.82,-759.18 463.43,-764.45"/>
</g>
<!-- pep_indicate -->
<g id="node15" class="node">
<title>pep_indicate</title>
<ellipse fill="none" stroke="black" cx="567.19" cy="-810" rx="55.79" ry="18"/>
<text text-anchor="middle" x="567.19" y="-806.3" font-family="Times,serif" font-size="14.00">pep_indicate</text>
</g>
<!-- pep_indicate&#45;&gt;pn_skb_send -->
<g id="edge15" class="edge">
<title>pep_indicate&#45;&gt;pn_skb_send</title>
<path fill="none" stroke="black" d="M548.64,-792.76C538.14,-783.58 524.84,-771.94 513.3,-761.84"/>
<polygon fill="black" stroke="black" points="515.48,-759.1 505.65,-755.15 510.87,-764.37 515.48,-759.1"/>
</g>
<!-- pep_reply -->
<g id="node16" class="node">
<title>pep_reply</title>
<ellipse fill="none" stroke="black" cx="687.19" cy="-810" rx="46.29" ry="18"/>
<text text-anchor="middle" x="687.19" y="-806.3" font-family="Times,serif" font-size="14.00">pep_reply</text>
</g>
<!-- pep_reply&#45;&gt;pn_skb_send -->
<g id="edge16" class="edge">
<title>pep_reply&#45;&gt;pn_skb_send</title>
<path fill="none" stroke="black" d="M653.72,-797.28C620.75,-785.74 570.12,-768.02 533.34,-755.15"/>
<polygon fill="black" stroke="black" points="534.43,-751.82 523.83,-751.82 532.11,-758.43 534.43,-751.82"/>
</g>
<!-- pn_sendmsg -->
<g id="node17" class="node">
<title>pn_sendmsg</title>
<ellipse fill="none" stroke="black" cx="806.19" cy="-810" rx="55.49" ry="18"/>
<text text-anchor="middle" x="806.19" y="-806.3" font-family="Times,serif" font-size="14.00">pn_sendmsg</text>
</g>
<!-- pn_sendmsg&#45;&gt;pn_skb_send -->
<g id="edge17" class="edge">
<title>pn_sendmsg&#45;&gt;pn_skb_send</title>
<path fill="none" stroke="black" d="M765.31,-797.78C757.65,-795.78 749.69,-793.77 742.19,-792 674.54,-776 596.17,-760.1 544.36,-749.95"/>
<polygon fill="black" stroke="black" points="544.85,-746.48 534.36,-748 543.51,-753.35 544.85,-746.48"/>
</g>
</g>
</svg>
